<svg xmlns="http://www.w3.org/2000/svg" viewBox="0 0 2048 1536"><filter id="b"><feGaussianBlur stdDeviation="12" /></filter><path d="M0 0h2048v1536H0z" fill="#a17e70" /><g filter="url(#b)" transform="scale(8.000000) translate(0.5 0.5)"><g transform="translate(75.267744 68.890696) rotate(179.922434) scale(61.132946 46.060041)"><ellipse fill="#0f0000" fill-opacity=".501961" cx="0" cy="0" rx="1" ry="1" /></g><ellipse fill="#fff" fill-opacity=".501961" cx="101" cy="11" rx="255" ry="14" /><g transform="translate(175.156297 191.000000) rotate(271.345316) scale(15.642351 199.532353)"><ellipse fill="#fff" fill-opacity=".501961" cx="0" cy="0" rx="1" ry="1" /></g><ellipse fill="#360000" fill-opacity=".501961" cx="209" cy="62" rx="39" ry="39" /><g transform="translate(2.356178 73.638007) rotate(0.815526) scale(8.953364 169.018034)"><ellipse fill="#fff" fill-opacity=".501961" cx="0" cy="0" rx="1" ry="1" /></g><path d="M0 0h2048v1536H0z" fill="#5a1f15" /><ellipse fill="#fff" fill-opacity=".501961" cx="87" cy="7" rx="255" ry="17" /><g transform="translate(225.971495 142.186266) rotate(82.091615) scale(32.925082 23.496498)"><ellipse fill="#c3270e" fill-opacity=".501961" cx="0" cy="0" rx="1" ry="1" /></g></g></svg>