<svg xmlns="http://www.w3.org/2000/svg" viewBox="0 0 2048 2732"><filter id="b"><feGaussianBlur stdDeviation="12" /></filter><path d="M0 0h2048v2732H0z" fill="#7c7056" /><g filter="url(#b)" transform="scale(10.671875) translate(0.5 0.5)"><ellipse fill="#000" fill-opacity=".501961" cx="36" cy="227" rx="52" ry="52" /><ellipse fill="#000" fill-opacity=".501961" cx="179" cy="235" rx="57" ry="57" /><g transform="translate(145.572389 113.128877) rotate(56.759538) scale(35.772973 117.136788)"><ellipse fill="#fbc193" fill-opacity=".501961" cx="0" cy="0" rx="1" ry="1" /></g><ellipse fill="#94e6ff" fill-opacity=".501961" cx="139" cy="27" rx="18" ry="33" /><g transform="translate(27.522759 26.914435) rotate(26.660720) scale(64.599789 30.062387)"><ellipse fill="#ebda69" fill-opacity=".501961" cx="0" cy="0" rx="1" ry="1" /></g><g transform="translate(118.699537 180.783459) rotate(341.223880) scale(28.333498 16.388466)"><ellipse fill="#ffd29c" fill-opacity=".501961" cx="0" cy="0" rx="1" ry="1" /></g><g transform="translate(182.966115 69.517440) rotate(398.047903) scale(32.990428 55.545399)"><ellipse fill="#d8c3b7" fill-opacity=".501961" cx="0" cy="0" rx="1" ry="1" /></g><ellipse fill="#00031a" fill-opacity=".501961" cx="167" cy="224" rx="43" ry="43" /></g></svg>