<svg xmlns="http://www.w3.org/2000/svg" viewBox="0 0 2048 2732"><filter id="b"><feGaussianBlur stdDeviation="12" /></filter><path d="M0 0h2048v2732H0z" fill="#524e48" /><g filter="url(#b)" transform="scale(10.671875) translate(0.5 0.5)"><ellipse fill="#b7a171" fill-opacity=".501961" cx="91" cy="59" rx="75" ry="43" /><g transform="translate(79.447247 161.861095) rotate(200.839675) scale(47.378364 14.366845)"><ellipse fill="#fbe4d8" fill-opacity=".501961" cx="0" cy="0" rx="1" ry="1" /></g><g transform="translate(191.000000 120.412338) rotate(90.192072) scale(184.532190 17.423039)"><ellipse fill="#000" fill-opacity=".501961" cx="0" cy="0" rx="1" ry="1" /></g><ellipse fill="#000" fill-opacity=".501961" cx="2" cy="116" rx="13" ry="255" /><g transform="translate(74 202) rotate(19) scale(15 56)"><path d="M0 0h2048v2732H0z" fill="#f6f7ff" /></g><g transform="translate(180.119673 143.977293) rotate(6.510704) scale(38.339099 63.650230)"><ellipse fill="#000008" fill-opacity=".501961" cx="0" cy="0" rx="1" ry="1" /></g><path fill="#f9d7c5" fill-opacity=".501961" d="M90.525981 146.267024 142.964515 138.590169 129.646433 117.646386 152.867839 87.614524z" /><path fill="#aab0cf" fill-opacity=".501961" d="M16 184v75l25-59z" /></g></svg>