<svg xmlns="http://www.w3.org/2000/svg" viewBox="0 0 2048 2732"><filter id="b"><feGaussianBlur stdDeviation="12" /></filter><path d="M0 0h2048v2732H0z" fill="#666462" /><g filter="url(#b)" transform="scale(10.671875) translate(0.5 0.5)"><g transform="translate(27.109423 68.092652) rotate(100.894214) scale(23.760713 70.797668)"><ellipse fill="#ffffb7" fill-opacity=".501961" cx="0" cy="0" rx="1" ry="1" /></g><ellipse fill="#20202e" fill-opacity=".501961" cx="164" cy="58" rx="79" ry="79" /><ellipse fill="#92bde0" fill-opacity=".501961" cx="176" cy="186" rx="48" ry="44" /><g transform="translate(40.441730 198.375990) rotate(338.050814) scale(16.120645 59.921729)"><ellipse fill="#c8c79d" fill-opacity=".501961" cx="0" cy="0" rx="1" ry="1" /></g><g transform="translate(71.490988 29.600019) rotate(265.437678) scale(23.927371 49.677000)"><ellipse fill="#1d1208" fill-opacity=".501961" cx="0" cy="0" rx="1" ry="1" /></g><g transform="translate(170.936604 224.850063) rotate(349.420984) scale(10.685917 42.035367)"><ellipse fill="#00122a" fill-opacity=".501961" cx="0" cy="0" rx="1" ry="1" /></g><ellipse fill="#fcc998" fill-opacity=".501961" cx="50" cy="0" rx="70" ry="9" /><g transform="translate(1.991208 54.715891) rotate(292.496324) scale(22.067345 59.739689)"><ellipse fill="#ffdaa9" fill-opacity=".501961" cx="0" cy="0" rx="1" ry="1" /></g></g></svg>