<svg xmlns="http://www.w3.org/2000/svg" viewBox="0 0 2048 1758"><filter id="b"><feGaussianBlur stdDeviation="12" /></filter><path d="M0 0h2048v1758H0z" fill="#9a9783" /><g filter="url(#b)" transform="scale(8.000000) translate(0.5 0.5)"><g transform="translate(141.069870 105.617505) rotate(-26.127913) scale(73.309056 89.670591)"><ellipse fill="#000" fill-opacity=".501961" cx="0" cy="0" rx="1" ry="1" /></g><ellipse fill="#fff" fill-opacity=".501961" cx="241" cy="117" rx="27" ry="218" /><g transform="translate(28.660118 73.507659) rotate(7.742655) scale(36.034313 166.669146)"><ellipse fill="#fff" fill-opacity=".501961" cx="0" cy="0" rx="1" ry="1" /></g><ellipse fill="#fff" fill-opacity=".501961" cx="172" cy="218" rx="254" ry="26" /><g transform="translate(121.937251 1.113004) rotate(172.439700) scale(186.549455 25.519726)"><ellipse fill="#fff" fill-opacity=".501961" cx="0" cy="0" rx="1" ry="1" /></g><g transform="translate(167.623649 84.560021) rotate(108.364261) scale(72.370208 41.645719)"><ellipse fill="#1a0f00" fill-opacity=".501961" cx="0" cy="0" rx="1" ry="1" /></g><ellipse fill="#030500" fill-opacity=".501961" cx="172" cy="172" rx="43" ry="22" /><g transform="translate(250.915347 78.087555) rotate(367.073273) scale(32.867547 123.923138)"><ellipse fill="#fff" fill-opacity=".501961" cx="0" cy="0" rx="1" ry="1" /></g></g></svg>