<svg xmlns="http://www.w3.org/2000/svg" viewBox="0 0 2048 2732"><filter id="b"><feGaussianBlur stdDeviation="12" /></filter><path d="M0 0h2048v2732H0z" fill="#735f5b" /><g filter="url(#b)" transform="scale(10.671875) translate(0.5 0.5)"><ellipse fill="#fff" fill-opacity=".501961" cx="86" cy="0" rx="191" ry="12" /><ellipse fill="#150a16" fill-opacity=".501961" cx="66" cy="71" rx="60" ry="60" /><g transform="translate(24.641759 199.199405) rotate(395.402437) scale(49.467033 22.162634)"><ellipse fill="#ffd0a3" fill-opacity=".501961" cx="0" cy="0" rx="1" ry="1" /></g><g transform="translate(120.199028 236.044583) rotate(211.551967) scale(32.102271 65.479727)"><ellipse fill="#dcb9a0" fill-opacity=".501961" cx="0" cy="0" rx="1" ry="1" /></g><ellipse fill="#fff" fill-opacity=".501961" cx="191" cy="229" rx="9" ry="255" /><g transform="translate(94.791388 114.510192) rotate(65.931138) scale(44.998003 12.522084)"><ellipse fill="#f9bc97" fill-opacity=".501961" cx="0" cy="0" rx="1" ry="1" /></g><g transform="translate(23 145) rotate(178) scale(30 43)"><path d="M0 0h2048v2732H0z" fill="#000" /></g><g transform="translate(143.554951 81.324605) rotate(139.923703) scale(47.116803 28.568078)"><ellipse fill="#210b09" fill-opacity=".501961" cx="0" cy="0" rx="1" ry="1" /></g></g></svg>