<svg xmlns="http://www.w3.org/2000/svg" viewBox="0 0 2048 2732"><filter id="b"><feGaussianBlur stdDeviation="12" /></filter><path d="M0 0h2048v2732H0z" fill="#857369" /><g filter="url(#b)" transform="scale(10.671875) translate(0.5 0.5)"><g transform="translate(111.704153 134.062854) rotate(52.014083) scale(70.013920 24.159421)"><ellipse fill="#211629" fill-opacity=".501961" cx="0" cy="0" rx="1" ry="1" /></g><g transform="translate(147.284745 62.569185) rotate(253.509008) scale(41.993002 29.018880)"><ellipse fill="#091636" fill-opacity=".501961" cx="0" cy="0" rx="1" ry="1" /></g><ellipse fill="#e3b58f" fill-opacity=".501961" cx="40" cy="223" rx="46" ry="52" /><g transform="translate(99.569347 47.808364) rotate(186.824463) scale(18.896307 43.255159)"><ellipse fill="#f9d2a7" fill-opacity=".501961" cx="0" cy="0" rx="1" ry="1" /></g><path d="M0 0h2048v2732H0z" fill="#000" /><g transform="translate(191.000000 205.052261) rotate(-32.547513) scale(30.249164 46.516040)"><ellipse fill="#dec1af" fill-opacity=".501961" cx="0" cy="0" rx="1" ry="1" /></g><path d="M0 0h2048v2732H0z" fill="#1c2633" /><g transform="translate(191.000000 36.853059) rotate(266.254941) scale(150.740527 17.169419)"><ellipse fill="#c4c6b3" fill-opacity=".501961" cx="0" cy="0" rx="1" ry="1" /></g></g></svg>