<svg xmlns="http://www.w3.org/2000/svg" viewBox="0 0 2048 1673"><filter id="b"><feGaussianBlur stdDeviation="12" /></filter><path d="M0 0h2048v1673H0z" fill="#c1c1c1" /><g filter="url(#b)" transform="scale(8.000000) translate(0.5 0.5)"><g transform="translate(157.957586 61.748510) rotate(250.219327) scale(15.445175 86.685068)"><ellipse fill="#000" fill-opacity=".501961" cx="0" cy="0" rx="1" ry="1" /></g><g transform="translate(155.006433 120.413881) rotate(160.985745) scale(20.800112 34.008001)"><ellipse fill="#000" fill-opacity=".501961" cx="0" cy="0" rx="1" ry="1" /></g><path d="M0 0h2048v1673H0z" fill="#000" /><g transform="translate(56.145733 22.243934) rotate(266.364613) scale(55.589366 111.151095)"><ellipse fill="#fff" fill-opacity=".501961" cx="0" cy="0" rx="1" ry="1" /></g><g transform="translate(34.892744 184.994274) rotate(39.951979) scale(32.738044 61.071158)"><ellipse fill="#fff" fill-opacity=".501961" cx="0" cy="0" rx="1" ry="1" /></g><path fill="#000" fill-opacity=".501961" d="M70 119 47 108 6 158z" /><ellipse fill="#5f5f5f" fill-opacity=".501961" cx="176" cy="185" rx="34" ry="22" /><ellipse fill="#fff" fill-opacity=".501961" cx="254" cy="100" rx="17" ry="207" /></g></svg>