<svg xmlns="http://www.w3.org/2000/svg" viewBox="0 0 2911 3783"><filter id="b"><feGaussianBlur stdDeviation="12" /></filter><path d="M0 0h2911v3783H0z" fill="#6c665a" /><g filter="url(#b)" transform="scale(14.777344) translate(0.5 0.5)"><ellipse fill="#000" fill-opacity=".501961" cx="102" cy="238" rx="196" ry="35" /><g transform="translate(147.625422 139.084610) rotate(129.105926) scale(47.016065 30.578408)"><ellipse fill="#ffdcc4" fill-opacity=".501961" cx="0" cy="0" rx="1" ry="1" /></g><g transform="translate(133.512341 54.906577) rotate(360.748197) scale(51.215068 45.766274)"><ellipse fill="#589be0" fill-opacity=".501961" cx="0" cy="0" rx="1" ry="1" /></g><g transform="translate(68.531283 135.964873) rotate(133.113525) scale(61.737793 88.751405)"><ellipse fill="#b28f54" fill-opacity=".501961" cx="0" cy="0" rx="1" ry="1" /></g><ellipse fill="#b1ddff" fill-opacity=".501961" cx="113" cy="70" rx="11" ry="61" /><g transform="translate(172.096307 236.731728) rotate(176.802943) scale(62.278955 40.327924)"><ellipse fill="#000007" fill-opacity=".501961" cx="0" cy="0" rx="1" ry="1" /></g><g transform="translate(43.389267 238.299601) rotate(176.840533) scale(37.804666 46.684533)"><ellipse fill="#090000" fill-opacity=".501961" cx="0" cy="0" rx="1" ry="1" /></g><path d="M0 0h2911v3783H0z" fill="#001d54" /></g></svg>