<svg xmlns="http://www.w3.org/2000/svg" viewBox="0 0 2047 2716"><filter id="b"><feGaussianBlur stdDeviation="12" /></filter><path d="M0 0h2047v2716H0z" fill="#c7c7c7" /><g filter="url(#b)" transform="scale(10.609375) translate(0.5 0.5)"><g transform="translate(88.024353 121.099562) rotate(217.168263) scale(68.953727 98.235103)"><ellipse fill="#7f7f7f" fill-opacity=".501961" cx="0" cy="0" rx="1" ry="1" /></g><ellipse fill="#fff" fill-opacity=".501961" cx="148" cy="249" rx="192" ry="37" /><g transform="translate(97 0) rotate(180) scale(192 85)"><path d="M0 0h2047v2716H0z" fill="#fff" /></g><g transform="translate(188.722404 202.849324) rotate(297.074509) scale(84.792465 25.105738)"><ellipse fill="#fff" fill-opacity=".501961" cx="0" cy="0" rx="1" ry="1" /></g><ellipse fill="#fff" fill-opacity=".501961" cx="38" cy="89" rx="9" ry="61" /><path fill="#858585" fill-opacity=".501961" d="M127 12l13 63L42 53z" /><g transform="translate(2.717586 106.180423) rotate(90.932653) scale(23.402576 9.835146)"><ellipse fill="#404040" fill-opacity=".501961" cx="0" cy="0" rx="1" ry="1" /></g><ellipse fill="#fff" fill-opacity=".501961" cx="0" cy="199" rx="20" ry="67" /></g></svg>