<svg xmlns="http://www.w3.org/2000/svg" viewBox="0 0 1671 2731"><filter id="b"><feGaussianBlur stdDeviation="12" /></filter><path d="M0 0h1671v2731H0z" fill="#a7a7a7" /><g filter="url(#b)" transform="scale(10.667969) translate(0.5 0.5)"><g transform="translate(108.867683 64.564908) rotate(173.773429) scale(38.720129 51.590888)"><ellipse fill="#030303" fill-opacity=".501961" cx="0" cy="0" rx="1" ry="1" /></g><g transform="translate(66.808020 137.138600) rotate(-6.366214) scale(54.031442 39.291400)"><ellipse fill="#171717" fill-opacity=".501961" cx="0" cy="0" rx="1" ry="1" /></g><g transform="translate(121.085929 215.133420) rotate(288.081104) scale(43.975724 90.273673)"><ellipse fill="#fff" fill-opacity=".501961" cx="0" cy="0" rx="1" ry="1" /></g><g transform="translate(48.664595 8.669530) rotate(273.616862) scale(25.841029 150.660303)"><ellipse fill="#fff" fill-opacity=".501961" cx="0" cy="0" rx="1" ry="1" /></g><g transform="translate(137.231789 178.339503) rotate(282.637277) scale(155.000000 16.942061)"><ellipse fill="#fff" fill-opacity=".501961" cx="0" cy="0" rx="1" ry="1" /></g><g transform="translate(49.965896 243.423628) rotate(152.247460) scale(14.199342 68.801762)"><ellipse fill="#181818" fill-opacity=".501961" cx="0" cy="0" rx="1" ry="1" /></g><path fill="#3b3b3b" fill-opacity=".501961" d="M125 8-16 128 45 18z" /><g transform="translate(5.452349 249.916403) rotate(264.295495) scale(62.531405 24.970127)"><ellipse fill="#fff" fill-opacity=".501961" cx="0" cy="0" rx="1" ry="1" /></g></g></svg>