<svg xmlns="http://www.w3.org/2000/svg" viewBox="0 0 1760 2480"><filter id="b"><feGaussianBlur stdDeviation="12" /></filter><path d="M0 0h1760v2480H0z" fill="#adaaa0" /><g filter="url(#b)" transform="scale(9.687500) translate(0.5 0.5)"><g transform="translate(139.133663 203.244078) rotate(91.675282) scale(90.802681 51.882265)"><ellipse fill="#fff" fill-opacity=".501961" cx="0" cy="0" rx="1" ry="1" /></g><ellipse fill="#413b2c" fill-opacity=".501961" cx="52" cy="188" rx="36" ry="181" /><g transform="translate(156.348191 100.977717) rotate(264.820820) scale(14.405636 147.263957)"><ellipse fill="#000" fill-opacity=".501961" cx="0" cy="0" rx="1" ry="1" /></g><path fill="#fff" fill-opacity=".501961" d="M197 117.902925 104.598159 118.048405-16 121.475556 197 190.043438z" /><g transform="translate(123.144424 63.727613) rotate(314.638541) scale(36.982173 67.741579)"><ellipse fill="#61552b" fill-opacity=".501961" cx="0" cy="0" rx="1" ry="1" /></g><path fill="#221600" fill-opacity=".501961" d="M11 8l36 5L10 118z" /><g transform="translate(0.000000 135.137030) rotate(267.788595) scale(169.627119 14.735482)"><ellipse fill="#fff" fill-opacity=".501961" cx="0" cy="0" rx="1" ry="1" /></g><g transform="translate(141.461354 211.336996) rotate(254.795443) scale(93.400490 49.622499)"><ellipse fill="#fff" fill-opacity=".501961" cx="0" cy="0" rx="1" ry="1" /></g></g></svg>