<svg xmlns="http://www.w3.org/2000/svg" viewBox="0 0 2048 2732"><filter id="b"><feGaussianBlur stdDeviation="12" /></filter><path d="M0 0h2048v2732H0z" fill="#736b5d" /><g filter="url(#b)" transform="scale(10.671875) translate(0.5 0.5)"><ellipse fill="#000" fill-opacity=".501961" cx="185" cy="107" rx="9" ry="255" /><ellipse fill="#000" fill-opacity=".501961" cx="0" cy="125" rx="15" ry="255" /><ellipse fill="#7ec5ff" fill-opacity=".501961" cx="165" cy="85" rx="13" ry="92" /><g transform="translate(92 143) rotate(106) scale(100 93)"><path d="M0 0h2048v2732H0z" fill="#deab63" /></g><g transform="translate(139.824733 245.502592) rotate(134.454848) scale(47.245296 26.747460)"><ellipse fill="#ffbaae" fill-opacity=".501961" cx="0" cy="0" rx="1" ry="1" /></g><g transform="translate(42.447739 227.671254) rotate(92.233697) scale(84.070669 27.062116)"><ellipse fill="#beb057" fill-opacity=".501961" cx="0" cy="0" rx="1" ry="1" /></g><path fill="#061328" fill-opacity=".501961" d="M161 141l-66-2 64-25z" /><path fill="#190d1a" fill-opacity=".501961" d="M129 99 43 60 96 45z" /></g></svg>