<svg xmlns="http://www.w3.org/2000/svg" viewBox="0 0 1760 2485"><filter id="b"><feGaussianBlur stdDeviation="12" /></filter><path d="M0 0h1760v2485H0z" fill="#c5b8b0" /><g filter="url(#b)" transform="scale(9.707031) translate(0.5 0.5)"><g transform="translate(88.843248 66.240278) rotate(94.236156) scale(48.977433 78.015299)"><ellipse fill="#370100" fill-opacity=".501961" cx="0" cy="0" rx="1" ry="1" /></g><ellipse fill="#fff" fill-opacity=".501961" cx="149" cy="185" rx="74" ry="74" /><g transform="translate(51.355319 208.041623) rotate(-55.761311) scale(28.643237 44.749044)"><ellipse fill="#382f1c" fill-opacity=".501961" cx="0" cy="0" rx="1" ry="1" /></g><ellipse fill="#fff" fill-opacity=".501961" cx="3" cy="116" rx="16" ry="200" /><g transform="translate(55.308533 47.965341) rotate(108.705084) scale(26.810603 36.404038)"><ellipse fill="#1e0000" fill-opacity=".501961" cx="0" cy="0" rx="1" ry="1" /></g><g transform="translate(121.559370 139.048519) rotate(5.247983) scale(131.403653 22.114773)"><ellipse fill="#fff" fill-opacity=".501961" cx="0" cy="0" rx="1" ry="1" /></g><ellipse fill="#fff" fill-opacity=".501961" cx="102" cy="7" rx="180" ry="13" /><path d="M0 0h1760v2485H0z" fill="#440509" /></g></svg>