<svg xmlns="http://www.w3.org/2000/svg" viewBox="0 0 2048 2732"><filter id="b"><feGaussianBlur stdDeviation="12" /></filter><path d="M0 0h2048v2732H0z" fill="#857369" /><g filter="url(#b)" transform="scale(10.671875) translate(0.5 0.5)"><g transform="translate(97.037615 129.575351) rotate(29.115818) scale(67.694424 42.152337)"><ellipse fill="#35313f" fill-opacity=".501961" cx="0" cy="0" rx="1" ry="1" /></g><g transform="translate(147.870501 61.750764) rotate(249.272411) scale(40.993837 29.355610)"><ellipse fill="#081535" fill-opacity=".501961" cx="0" cy="0" rx="1" ry="1" /></g><ellipse fill="#e1b38e" fill-opacity=".501961" cx="41" cy="221" rx="49" ry="49" /><g transform="translate(94 66) rotate(124) scale(31 37)"><path d="M0 0h2048v2732H0z" fill="#ffd" /></g><g transform="translate(174.952674 203.317421) rotate(78.632032) scale(45.229005 14.355062)"><ellipse fill="#e5c6b3" fill-opacity=".501961" cx="0" cy="0" rx="1" ry="1" /></g><g transform="translate(66.719286 34.663315) rotate(252.749105) scale(28.126125 12.020545)"><ellipse fill="#00000a" fill-opacity=".501961" cx="0" cy="0" rx="1" ry="1" /></g><path fill="#472237" fill-opacity=".501961" d="M118 240l47-10L120 56z" /><g transform="translate(191.000000 88.863233) rotate(353.666386) scale(12.709367 126.636896)"><ellipse fill="#c4c6b3" fill-opacity=".501961" cx="0" cy="0" rx="1" ry="1" /></g></g></svg>