<svg xmlns="http://www.w3.org/2000/svg" viewBox="0 0 1748 2476"><filter id="b"><feGaussianBlur stdDeviation="12" /></filter><path d="M0 0h1748v2476H0z" fill="#e2e2e1" /><g filter="url(#b)" transform="scale(9.671875) translate(0.5 0.5)"><g transform="translate(27 84) rotate(89) scale(33 31)"><path d="M0 0h1748v2476H0z" fill="#000" /></g><g transform="translate(55.915280 171.667046) rotate(395.770392) scale(31.672461 45.006885)"><ellipse fill="#6d6d6e" fill-opacity=".501961" cx="0" cy="0" rx="1" ry="1" /></g><g transform="translate(65.894427 55.982227) rotate(295.382260) scale(43.466572 56.546004)"><ellipse fill="#919082" fill-opacity=".501961" cx="0" cy="0" rx="1" ry="1" /></g><g transform="translate(149.113216 137.239177) rotate(188.819433) scale(47.840159 180.000000)"><ellipse fill="#fff" fill-opacity=".501961" cx="0" cy="0" rx="1" ry="1" /></g><g transform="translate(23 85) rotate(79) scale(25 23)"><path d="M0 0h1748v2476H0z" fill="#000" /></g><g transform="translate(90.557813 238.527031) rotate(355.295477) scale(180.000000 27.738924)"><ellipse fill="#fff" fill-opacity=".501961" cx="0" cy="0" rx="1" ry="1" /></g><g transform="translate(34 43) rotate(181) scale(40 5)"><path d="M0 0h1748v2476H0z" fill="#000" /></g><ellipse fill="#fff" fill-opacity=".501961" cx="22" cy="117" rx="180" ry="19" /></g></svg>