<svg xmlns="http://www.w3.org/2000/svg" viewBox="0 0 1760 2478"><filter id="b"><feGaussianBlur stdDeviation="12" /></filter><path d="M0 0h1760v2478H0z" fill="#e6e6e3" /><g filter="url(#b)" transform="scale(9.679688) translate(0.5 0.5)"><g transform="translate(53.875321 54.318261) rotate(223.487075) scale(28.057519 34.240551)"><ellipse fill="#000" fill-opacity=".501961" cx="0" cy="0" rx="1" ry="1" /></g><g transform="translate(51.891543 144.378964) rotate(213.541025) scale(26.872198 33.872190)"><ellipse fill="#000202" fill-opacity=".501961" cx="0" cy="0" rx="1" ry="1" /></g><g transform="translate(56.499626 54.619379) rotate(50.041605) scale(31.900685 18.195605)"><ellipse fill="#0d0800" fill-opacity=".501961" cx="0" cy="0" rx="1" ry="1" /></g><ellipse fill="#fff" fill-opacity=".501961" cx="144" cy="118" rx="66" ry="253" /><path fill="#1c1e1d" fill-opacity=".501961" d="M55 206 21 158l13 46z" /><path d="M0 0h1760v2478H0z" fill="#1c1700" /><g transform="translate(52.201590 95.189231) rotate(268.717908) scale(15.415011 93.322693)"><ellipse fill="#fff" fill-opacity=".501961" cx="0" cy="0" rx="1" ry="1" /></g><g transform="translate(109.427914 215.821458) rotate(-116.997752) scale(38.633676 122.918930)"><ellipse fill="#fff" fill-opacity=".501961" cx="0" cy="0" rx="1" ry="1" /></g></g></svg>