<svg xmlns="http://www.w3.org/2000/svg" viewBox="0 0 2048 2732"><filter id="b"><feGaussianBlur stdDeviation="12" /></filter><path d="M0 0h2048v2732H0z" fill="#736b5d" /><g filter="url(#b)" transform="scale(10.671875) translate(0.5 0.5)"><ellipse fill="#000" fill-opacity=".501961" cx="6" cy="151" rx="9" ry="255" /><ellipse fill="#000" fill-opacity=".501961" cx="191" cy="129" rx="15" ry="255" /><ellipse fill="#81c8ff" fill-opacity=".501961" cx="166" cy="77" rx="12" ry="100" /><g transform="translate(83.449499 146.644110) rotate(128.811294) scale(61.684811 42.354814)"><ellipse fill="#deac61" fill-opacity=".501961" cx="0" cy="0" rx="1" ry="1" /></g><g transform="translate(144.728185 240.557262) rotate(129.996179) scale(41.498905 26.983963)"><ellipse fill="#ffb9ac" fill-opacity=".501961" cx="0" cy="0" rx="1" ry="1" /></g><g transform="translate(84.376424 68.618567) rotate(285.049829) scale(13.710982 34.920981)"><ellipse fill="#170815" fill-opacity=".501961" cx="0" cy="0" rx="1" ry="1" /></g><ellipse fill="#bfb259" fill-opacity=".501961" cx="37" cy="241" rx="23" ry="95" /><g transform="translate(152.307749 56.503068) rotate(255.606727) scale(60.781695 19.707018)"><ellipse fill="#5c91e1" fill-opacity=".501961" cx="0" cy="0" rx="1" ry="1" /></g></g></svg>