<svg xmlns="http://www.w3.org/2000/svg" viewBox="0 0 2911 3783"><filter id="b"><feGaussianBlur stdDeviation="12" /></filter><path d="M0 0h2911v3783H0z" fill="#6c665a" /><g filter="url(#b)" transform="scale(14.777344) translate(0.5 0.5)"><ellipse fill="#000" fill-opacity=".501961" cx="117" cy="238" rx="196" ry="35" /><g transform="translate(147.453610 141.735507) rotate(216.608299) scale(34.329535 47.170883)"><ellipse fill="#ffd3bb" fill-opacity=".501961" cx="0" cy="0" rx="1" ry="1" /></g><g transform="translate(127.308632 61.548233) rotate(91.344599) scale(55.283362 33.619010)"><ellipse fill="#69a8ee" fill-opacity=".501961" cx="0" cy="0" rx="1" ry="1" /></g><g transform="translate(27.710768 129.225371) rotate(-41.165322) scale(81.994256 24.632072)"><ellipse fill="#ddb959" fill-opacity=".501961" cx="0" cy="0" rx="1" ry="1" /></g><ellipse fill="#d7925f" fill-opacity=".501961" cx="97" cy="184" rx="33" ry="33" /><ellipse fill="#1e5894" fill-opacity=".501961" cx="176" cy="53" rx="46" ry="46" /><g transform="translate(155.596611 238.010318) rotate(326.384165) scale(53.046697 39.021728)"><ellipse fill="#000009" fill-opacity=".501961" cx="0" cy="0" rx="1" ry="1" /></g><ellipse fill="#bcdff2" fill-opacity=".501961" cx="112" cy="72" rx="10" ry="59" /></g></svg>