<svg xmlns="http://www.w3.org/2000/svg" viewBox="0 0 1671 2731"><filter id="b"><feGaussianBlur stdDeviation="12" /></filter><path d="M0 0h1671v2731H0z" fill="#a7a7a7" /><g filter="url(#b)" transform="scale(10.667969) translate(0.5 0.5)"><g transform="translate(81.581806 103.583123) rotate(316.604803) scale(86.924526 40.028020)"><ellipse fill="#1f1f1f" fill-opacity=".501961" cx="0" cy="0" rx="1" ry="1" /></g><g transform="translate(129.115352 220.653712) rotate(290.437042) scale(48.279740 82.899644)"><ellipse fill="#fff" fill-opacity=".501961" cx="0" cy="0" rx="1" ry="1" /></g><path fill="#fff" fill-opacity=".501961" d="M81 92-15 142 67 57z" /><g transform="translate(12.333827 20.899682) rotate(-42.574160) scale(155.000000 26.015549)"><ellipse fill="#fff" fill-opacity=".501961" cx="0" cy="0" rx="1" ry="1" /></g><g transform="translate(155.000000 127.238452) rotate(101.855737) scale(76.750830 22.873550)"><ellipse fill="#fff" fill-opacity=".501961" cx="0" cy="0" rx="1" ry="1" /></g><g transform="translate(103.030974 152.189471) rotate(369.223297) scale(27.702831 14.105439)"><ellipse fill="#000" fill-opacity=".501961" cx="0" cy="0" rx="1" ry="1" /></g><g transform="translate(47.497161 251.087092) rotate(338.318350) scale(11.403167 77.052798)"><ellipse fill="#000" fill-opacity=".501961" cx="0" cy="0" rx="1" ry="1" /></g><g transform="translate(24.493736 77.024261) rotate(224.714308) scale(17.052706 59.341978)"><ellipse fill="#363636" fill-opacity=".501961" cx="0" cy="0" rx="1" ry="1" /></g></g></svg>