<svg xmlns="http://www.w3.org/2000/svg" viewBox="0 0 2047 2716"><filter id="b"><feGaussianBlur stdDeviation="12" /></filter><path d="M0 0h2047v2716H0z" fill="#c7c7c7" /><g filter="url(#b)" transform="scale(10.609375) translate(0.5 0.5)"><g transform="translate(89.783281 123.829849) rotate(213.540890) scale(70.152367 97.711827)"><ellipse fill="gray" fill-opacity=".501961" cx="0" cy="0" rx="1" ry="1" /></g><ellipse fill="#fff" fill-opacity=".501961" cx="146" cy="239" rx="192" ry="26" /><g transform="translate(124.758321 19.050867) rotate(89.294675) scale(25.225001 192.000000)"><ellipse fill="#fff" fill-opacity=".501961" cx="0" cy="0" rx="1" ry="1" /></g><ellipse fill="#fff" fill-opacity=".501961" cx="162" cy="221" rx="61" ry="61" /><path fill="#6a6a6a" fill-opacity=".501961" d="M178.266909 168.076162 154.309417 216.135719 129.905218 218.342113 137.411834 186.3332z" /><path fill="#848484" fill-opacity=".501961" d="M189 73 117 17 45 52z" /><g transform="translate(34.223952 63.762267) rotate(266.042919) scale(85.195791 13.336317)"><ellipse fill="#f9f9f9" fill-opacity=".501961" cx="0" cy="0" rx="1" ry="1" /></g><g transform="translate(0.000000 104.700525) rotate(251.759601) scale(34.673981 12.028709)"><ellipse fill="#4c4c4c" fill-opacity=".501961" cx="0" cy="0" rx="1" ry="1" /></g></g></svg>