<svg xmlns="http://www.w3.org/2000/svg" viewBox="0 0 2048 2732"><filter id="b"><feGaussianBlur stdDeviation="12" /></filter><path d="M0 0h2048v2732H0z" fill="#735f5b" /><g filter="url(#b)" transform="scale(10.671875) translate(0.5 0.5)"><g transform="translate(94.861900 82.074904) rotate(200.065311) scale(90.358564 68.326269)"><ellipse fill="#2f1a1d" fill-opacity=".501961" cx="0" cy="0" rx="1" ry="1" /></g><ellipse fill="#fff" fill-opacity=".501961" cx="86" cy="0" rx="191" ry="12" /><ellipse fill="#fff" fill-opacity=".501961" cx="191" cy="180" rx="9" ry="205" /><g transform="translate(108.115635 255.000000) rotate(-0.233336) scale(182.087043 8.368545)"><ellipse fill="#fff" fill-opacity=".501961" cx="0" cy="0" rx="1" ry="1" /></g><path fill="#fff" fill-opacity=".501961" d="M-16 113 8 189 6 34z" /><g transform="translate(98.902891 125.601211) rotate(160.445823) scale(12.286208 50.404911)"><ellipse fill="#ffc7a5" fill-opacity=".501961" cx="0" cy="0" rx="1" ry="1" /></g><g transform="translate(20.129064 202.390654) rotate(295.581535) scale(27.303306 50.857156)"><ellipse fill="#fac79c" fill-opacity=".501961" cx="0" cy="0" rx="1" ry="1" /></g><path fill="#000" fill-opacity=".501961" d="M9 120 75 93 8 186z" /></g></svg>