<svg xmlns="http://www.w3.org/2000/svg" viewBox="0 0 2048 1758"><filter id="b"><feGaussianBlur stdDeviation="12" /></filter><path d="M0 0h2048v1758H0z" fill="#9a9783" /><g filter="url(#b)" transform="scale(8.000000) translate(0.5 0.5)"><g transform="translate(143.279249 109.199050) rotate(51.879753) scale(93.389501 64.828671)"><ellipse fill="#000" fill-opacity=".501961" cx="0" cy="0" rx="1" ry="1" /></g><ellipse fill="#fff" fill-opacity=".501961" cx="242" cy="114" rx="28" ry="218" /><g transform="translate(27.866688 65.985106) rotate(97.868216) scale(203.539680 37.298771)"><ellipse fill="#fff" fill-opacity=".501961" cx="0" cy="0" rx="1" ry="1" /></g><ellipse fill="#130600" fill-opacity=".501961" cx="172" cy="57" rx="43" ry="43" /><ellipse fill="#fff" fill-opacity=".501961" cx="174" cy="207" rx="230" ry="15" /><g transform="translate(142.400071 1.801504) rotate(261.316969) scale(21.740551 175.400094)"><ellipse fill="#fff" fill-opacity=".501961" cx="0" cy="0" rx="1" ry="1" /></g><g transform="translate(169.709791 142.680847) rotate(411.376239) scale(59.255598 33.522526)"><ellipse fill="#0f0f00" fill-opacity=".501961" cx="0" cy="0" rx="1" ry="1" /></g><path fill="#242100" fill-opacity=".501961" d="M98 146 85 195l-52-5z" /></g></svg>