<svg xmlns="http://www.w3.org/2000/svg" viewBox="0 0 1760 2480"><filter id="b"><feGaussianBlur stdDeviation="12" /></filter><path d="M0 0h1760v2480H0z" fill="#e4e0dc" /><g filter="url(#b)" transform="scale(9.687500) translate(0.5 0.5)"><ellipse fill="#150200" fill-opacity=".501961" cx="38" cy="54" rx="29" ry="39" /><ellipse fill="#887156" fill-opacity=".501961" cx="64" cy="158" rx="100" ry="28" /><path d="M0 0h1760v2480H0z" fill="#554126" /><g transform="translate(124.782051 104.893619) rotate(264.391404) scale(33.822842 92.649417)"><ellipse fill="#fff" fill-opacity=".501961" cx="0" cy="0" rx="1" ry="1" /></g><g transform="translate(42.810092 160.280824) rotate(74.720467) scale(34.682681 17.509310)"><ellipse fill="#574023" fill-opacity=".501961" cx="0" cy="0" rx="1" ry="1" /></g><g transform="translate(112.169839 225.664490) rotate(85.588781) scale(39.475600 130.312941)"><ellipse fill="#fff" fill-opacity=".501961" cx="0" cy="0" rx="1" ry="1" /></g><ellipse fill="#fff" fill-opacity=".501961" cx="156" cy="49" rx="91" ry="91" /><g transform="translate(3.432669 137.924308) rotate(84.777050) scale(113.505874 14.820785)"><ellipse fill="#fff" fill-opacity=".501961" cx="0" cy="0" rx="1" ry="1" /></g></g></svg>