<svg xmlns="http://www.w3.org/2000/svg" viewBox="0 0 2048 2732"><filter id="b"><feGaussianBlur stdDeviation="12" /></filter><path d="M0 0h2048v2732H0z" fill="#968b7e" /><g filter="url(#b)" transform="scale(10.671875) translate(0.5 0.5)"><ellipse fill="#fbffff" fill-opacity=".501961" cx="22" cy="190" rx="58" ry="58" /><g transform="translate(160.262040 142.789096) rotate(-9.191627) scale(22.009478 59.493785)"><ellipse fill="#000" fill-opacity=".501961" cx="0" cy="0" rx="1" ry="1" /></g><path fill="#000" fill-opacity=".501961" d="M205-6-16-5 118 34z" /><g transform="translate(13.786837 95.970768) rotate(90.948162) scale(88.438880 22.312037)"><ellipse fill="#fff" fill-opacity=".501961" cx="0" cy="0" rx="1" ry="1" /></g><g transform="translate(99.044693 255.000000) rotate(89.489279) scale(8.296872 191.000000)"><ellipse fill="#000" fill-opacity=".501961" cx="0" cy="0" rx="1" ry="1" /></g><path fill="#fff" fill-opacity=".501961" d="M-16 51.088755V8.520859L56.411185 7.783329 93.033382 9.486614z" /><ellipse fill="#b96f37" fill-opacity=".501961" cx="95" cy="124" rx="55" ry="70" /><g transform="translate(191.000000 32.546289) rotate(101.367060) scale(22.439812 58.769538)"><ellipse fill="#d0e2f2" fill-opacity=".501961" cx="0" cy="0" rx="1" ry="1" /></g></g></svg>