<svg xmlns="http://www.w3.org/2000/svg" viewBox="0 0 2048 1748"><filter id="b"><feGaussianBlur stdDeviation="12" /></filter><path d="M0 0h2048v1748H0z" fill="#aeaea7" /><g filter="url(#b)" transform="scale(8.000000) translate(0.5 0.5)"><ellipse fill="#000" fill-opacity=".501961" cx="30" cy="180" rx="35" ry="35" /><g transform="translate(32 182) rotate(77) scale(58 52)"><path d="M0 0h2048v1748H0z" fill="#000" /></g><path d="M0 0h2048v1748H0z" fill="#000" /><g transform="translate(54.180632 117.069502) rotate(164.093338) scale(90.842717 22.440629)"><ellipse fill="#fffff4" fill-opacity=".501961" cx="0" cy="0" rx="1" ry="1" /></g><path fill="#000" fill-opacity=".501961" d="M109.506319 121.997512 111.840338 123.710518 84.40482 144.122973 131.779267 142.031339z" /><g transform="translate(157.119082 0.000000) rotate(205.429697) scale(36.174962 71.154273)"><ellipse fill="#faf6ed" fill-opacity=".501961" cx="0" cy="0" rx="1" ry="1" /></g><path fill="#000" fill-opacity=".501961" d="M29 73 4 110 3 75z" /><g transform="translate(134.976365 177.602174) rotate(356.457708) scale(10.683949 55.626898)"><ellipse fill="#fff" fill-opacity=".501961" cx="0" cy="0" rx="1" ry="1" /></g></g></svg>