<svg xmlns="http://www.w3.org/2000/svg" viewBox="0 0 1760 2443"><filter id="b"><feGaussianBlur stdDeviation="12" /></filter><path d="M0 0h1760v2443H0z" fill="#f5f5f5" /><g filter="url(#b)" transform="scale(9.542969) translate(0.5 0.5)"><path fill="#515351" fill-opacity=".501961" d="M11 67l91 32-2-78z" /><path fill="#000" fill-opacity=".501961" d="M46 52 73 34h32z" /><g transform="translate(44.887971 68.707480) rotate(318.530385) scale(16.250735 41.655876)"><ellipse fill="#c7c9c8" fill-opacity=".501961" cx="0" cy="0" rx="1" ry="1" /></g><path d="M0 0h1760v2443H0z" fill="#050706" /><path fill="#fff" fill-opacity=".501961" d="M199 247.120152 77.468827 62.668856 92.714904 36.55352 88.21157 271z" /><path fill="#676967" fill-opacity=".501961" d="M1e2 93 35 95 67 84z" /><path fill="#fff" fill-opacity=".501961" d="M53.845539 56.285521l26.021186 27.58994L-7.042513 74.955873-16 105.620246z" /><ellipse fill="#fff" fill-opacity=".501961" cx="11" cy="140" rx="12" ry="252" /></g></svg>