<svg xmlns="http://www.w3.org/2000/svg" viewBox="0 0 2048 2732"><filter id="b"><feGaussianBlur stdDeviation="12" /></filter><path d="M0 0h2048v2732H0z" fill="#857369" /><g filter="url(#b)" transform="scale(10.671875) translate(0.5 0.5)"><g transform="translate(109.746386 127.887779) rotate(223.032437) scale(66.866059 29.422391)"><ellipse fill="#281f31" fill-opacity=".501961" cx="0" cy="0" rx="1" ry="1" /></g><ellipse fill="#061233" fill-opacity=".501961" cx="146" cy="63" rx="30" ry="39" /><g transform="translate(34.841093 229.667327) rotate(295.694185) scale(61.086732 46.447686)"><ellipse fill="#e3b68f" fill-opacity=".501961" cx="0" cy="0" rx="1" ry="1" /></g><path fill="#fff6d2" fill-opacity=".501961" d="M115 42l3 48L47 70z" /><g transform="translate(179.374035 204.648546) rotate(69.165970) scale(41.610368 18.210934)"><ellipse fill="#e8c8b6" fill-opacity=".501961" cx="0" cy="0" rx="1" ry="1" /></g><g transform="translate(67.837001 36.680027) rotate(256.528825) scale(28.725159 12.015170)"><ellipse fill="#00050f" fill-opacity=".501961" cx="0" cy="0" rx="1" ry="1" /></g><g transform="translate(187.503757 76.407339) rotate(-5.536759) scale(10.479515 122.675257)"><ellipse fill="#c2c5b2" fill-opacity=".501961" cx="0" cy="0" rx="1" ry="1" /></g><g transform="translate(135.788888 205.044714) rotate(115.420481) scale(40.768369 12.049696)"><ellipse fill="#3a1734" fill-opacity=".501961" cx="0" cy="0" rx="1" ry="1" /></g></g></svg>