<svg xmlns="http://www.w3.org/2000/svg" viewBox="0 0 2048 1758"><filter id="b"><feGaussianBlur stdDeviation="12" /></filter><path d="M0 0h2048v1758H0z" fill="#9a9783" /><g filter="url(#b)" transform="scale(8.000000) translate(0.5 0.5)"><g transform="translate(141.280586 108.028907) rotate(148.116811) scale(70.765691 92.757027)"><ellipse fill="#000" fill-opacity=".501961" cx="0" cy="0" rx="1" ry="1" /></g><g transform="translate(244.477998 123.489723) rotate(180.076696) scale(30.497134 224.836462)"><ellipse fill="#fff" fill-opacity=".501961" cx="0" cy="0" rx="1" ry="1" /></g><g transform="translate(27.825353 54.617117) rotate(189.083366) scale(39.235910 227.837762)"><ellipse fill="#fff" fill-opacity=".501961" cx="0" cy="0" rx="1" ry="1" /></g><ellipse fill="#fff" fill-opacity=".501961" cx="174" cy="213" rx="255" ry="21" /><g transform="translate(137.351966 0.000000) rotate(350.381972) scale(201.622987 24.215182)"><ellipse fill="#fff" fill-opacity=".501961" cx="0" cy="0" rx="1" ry="1" /></g><ellipse fill="#251900" fill-opacity=".501961" cx="163" cy="66" rx="52" ry="52" /><g transform="translate(173.038305 152.473907) rotate(-48.065546) scale(28.658203 51.212118)"><ellipse fill="#070800" fill-opacity=".501961" cx="0" cy="0" rx="1" ry="1" /></g><g transform="translate(237.263469 104.040518) rotate(360.322938) scale(22.278191 124.718760)"><ellipse fill="#fff" fill-opacity=".501961" cx="0" cy="0" rx="1" ry="1" /></g></g></svg>