<svg xmlns="http://www.w3.org/2000/svg" viewBox="0 0 2048 1673"><filter id="b"><feGaussianBlur stdDeviation="12" /></filter><path d="M0 0h2048v1673H0z" fill="#c1c1c1" /><g filter="url(#b)" transform="scale(8.000000) translate(0.5 0.5)"><g transform="translate(179.252720 50.408744) rotate(164.985389) scale(68.625407 12.049225)"><ellipse fill="#000" fill-opacity=".501961" cx="0" cy="0" rx="1" ry="1" /></g><g transform="translate(156.109264 121.398423) rotate(70.247561) scale(34.546605 22.408494)"><ellipse fill="#000" fill-opacity=".501961" cx="0" cy="0" rx="1" ry="1" /></g><g transform="translate(228 136) rotate(269) scale(59 20)"><path d="M0 0h2048v1673H0z" fill="#000" /></g><g transform="translate(32.759142 185.469280) rotate(47.158686) scale(35.876499 53.409728)"><ellipse fill="#fff" fill-opacity=".501961" cx="0" cy="0" rx="1" ry="1" /></g><g transform="translate(65.805278 25.749162) rotate(171.701072) scale(148.230988 41.735530)"><ellipse fill="#fff" fill-opacity=".501961" cx="0" cy="0" rx="1" ry="1" /></g><path fill="#000" fill-opacity=".501961" d="M96 96l94-45L93 69z" /><path fill="#000" fill-opacity=".501961" d="M12 156l35-24 2-32z" /><ellipse fill="#fff" fill-opacity=".501961" cx="248" cy="54" rx="11" ry="208" /></g></svg>