<svg xmlns="http://www.w3.org/2000/svg" viewBox="0 0 2911 3783"><filter id="b"><feGaussianBlur stdDeviation="12" /></filter><path d="M0 0h2911v3783H0z" fill="#6c665a" /><g filter="url(#b)" transform="scale(14.777344) translate(0.5 0.5)"><ellipse fill="#000" fill-opacity=".501961" cx="120" cy="238" rx="196" ry="35" /><g transform="translate(148.995295 139.214129) rotate(134.467378) scale(49.190057 33.252249)"><ellipse fill="#ffd3bc" fill-opacity=".501961" cx="0" cy="0" rx="1" ry="1" /></g><path fill="#7bc4ff" fill-opacity=".501961" d="M93 9l70 3-55 118z" /><g transform="translate(25.830212 135.086055) rotate(314.434825) scale(84.858631 26.024377)"><ellipse fill="#d8b555" fill-opacity=".501961" cx="0" cy="0" rx="1" ry="1" /></g><g transform="translate(177.607406 54.303327) rotate(67.471348) scale(43.810066 53.623203)"><ellipse fill="#1e5a9d" fill-opacity=".501961" cx="0" cy="0" rx="1" ry="1" /></g><ellipse fill="#d5915e" fill-opacity=".501961" cx="97" cy="183" rx="35" ry="33" /><g transform="translate(171.695967 228.765767) rotate(170.160636) scale(66.822605 34.018321)"><ellipse fill="#00000a" fill-opacity=".501961" cx="0" cy="0" rx="1" ry="1" /></g><g transform="translate(42.381338 233.905040) rotate(-123.827380) scale(39.203020 37.210085)"><ellipse fill="#070000" fill-opacity=".501961" cx="0" cy="0" rx="1" ry="1" /></g></g></svg>