<svg xmlns="http://www.w3.org/2000/svg" viewBox="0 0 1760 2485"><filter id="b"><feGaussianBlur stdDeviation="12" /></filter><path d="M0 0h1760v2485H0z" fill="#c5b8b0" /><g filter="url(#b)" transform="scale(9.707031) translate(0.5 0.5)"><g transform="translate(91.817047 65.073574) rotate(187.026451) scale(75.138035 48.597941)"><ellipse fill="#300" fill-opacity=".501961" cx="0" cy="0" rx="1" ry="1" /></g><ellipse fill="#fff" fill-opacity=".501961" cx="162" cy="191" rx="80" ry="80" /><path fill="#2d210b" fill-opacity=".501961" d="M16 239l87-14-81-73z" /><g transform="translate(94.808875 154.481741) rotate(13.921894) scale(119.163128 31.667247)"><ellipse fill="#fff" fill-opacity=".501961" cx="0" cy="0" rx="1" ry="1" /></g><g transform="translate(73.027768 6.808170) rotate(90.361761) scale(13.891251 102.307559)"><ellipse fill="#fff" fill-opacity=".501961" cx="0" cy="0" rx="1" ry="1" /></g><ellipse fill="#1b0000" fill-opacity=".501961" cx="56" cy="45" rx="38" ry="26" /><g transform="translate(0.000000 165.184790) rotate(1.327912) scale(18.152072 164.524979)"><ellipse fill="#fff" fill-opacity=".501961" cx="0" cy="0" rx="1" ry="1" /></g><ellipse fill="#360000" fill-opacity=".501961" cx="143" cy="43" rx="24" ry="24" /></g></svg>