<svg xmlns="http://www.w3.org/2000/svg" viewBox="0 0 2048 2703"><filter id="b"><feGaussianBlur stdDeviation="12" /></filter><path d="M0 0h2048v2703H0z" fill="#7e7161" /><g filter="url(#b)" transform="scale(10.558594) translate(0.5 0.5)"><ellipse fill="#000" fill-opacity=".501961" cx="42" cy="168" rx="30" ry="74" /><g transform="translate(70.583357 5.920133) rotate(270.173674) scale(14.728717 193.000000)"><ellipse fill="#fff" fill-opacity=".501961" cx="0" cy="0" rx="1" ry="1" /></g><g transform="translate(147.788167 195.116934) rotate(188.289456) scale(34.630415 46.424998)"><ellipse fill="#000" fill-opacity=".501961" cx="0" cy="0" rx="1" ry="1" /></g><ellipse fill="#fff" fill-opacity=".501961" cx="100" cy="255" rx="193" ry="16" /><path fill="#110700" fill-opacity=".501961" d="M13 232 15 19l101 1z" /><g transform="translate(193.000000 126.523401) rotate(270.376841) scale(159.824564 12.202255)"><ellipse fill="#fff" fill-opacity=".501961" cx="0" cy="0" rx="1" ry="1" /></g><g transform="translate(3.674025 137.406613) rotate(90.128201) scale(159.990675 9.445154)"><ellipse fill="#fff" fill-opacity=".501961" cx="0" cy="0" rx="1" ry="1" /></g><g transform="translate(95.269184 189.125614) rotate(10.748477) scale(18.845446 39.481097)"><ellipse fill="#fffffc" fill-opacity=".501961" cx="0" cy="0" rx="1" ry="1" /></g></g></svg>