<svg xmlns="http://www.w3.org/2000/svg" viewBox="0 0 2048 2732"><filter id="b"><feGaussianBlur stdDeviation="12" /></filter><path d="M0 0h2048v2732H0z" fill="#735f5b" /><g filter="url(#b)" transform="scale(10.671875) translate(0.5 0.5)"><g transform="translate(96.925527 54.823267) rotate(201.899958) scale(91.655632 30.038006)"><ellipse fill="#060004" fill-opacity=".501961" cx="0" cy="0" rx="1" ry="1" /></g><ellipse fill="#fff" fill-opacity=".501961" cx="97" cy="4" rx="191" ry="8" /><g transform="translate(42.305737 122.539077) rotate(126.773299) scale(42.345653 31.829350)"><ellipse fill="#00000d" fill-opacity=".501961" cx="0" cy="0" rx="1" ry="1" /></g><g transform="translate(191.000000 107.363087) rotate(1.758768) scale(6.454381 156.575799)"><ellipse fill="#fff" fill-opacity=".501961" cx="0" cy="0" rx="1" ry="1" /></g><ellipse fill="#fff" fill-opacity=".501961" cx="78" cy="251" rx="191" ry="5" /><ellipse fill="#fff" fill-opacity=".501961" cx="0" cy="116" rx="8" ry="152" /><g transform="translate(35.160106 202.260665) rotate(415.819593) scale(35.617432 18.791853)"><ellipse fill="#ffd8a6" fill-opacity=".501961" cx="0" cy="0" rx="1" ry="1" /></g><path d="M0 0h2048v2732H0z" fill="#e5c6ad" /></g></svg>