<svg xmlns="http://www.w3.org/2000/svg" viewBox="0 0 1760 2478"><filter id="b"><feGaussianBlur stdDeviation="12" /></filter><path d="M0 0h1760v2478H0z" fill="#e6e6e3" /><g filter="url(#b)" transform="scale(9.679688) translate(0.5 0.5)"><g transform="translate(57 52) rotate(272) scale(58 51)"><path d="M0 0h1760v2478H0z" fill="#000" /></g><g transform="translate(50.757358 146.888297) rotate(303.914901) scale(36.525160 25.611495)"><ellipse fill="#070909" fill-opacity=".501961" cx="0" cy="0" rx="1" ry="1" /></g><path d="M0 0h1760v2478H0z" fill="#221b00" /><ellipse fill="#fff" fill-opacity=".501961" cx="160" cy="171" rx="88" ry="88" /><g transform="translate(133 103) rotate(359) scale(103 255)"><path d="M0 0h1760v2478H0z" fill="#fff" /></g><path fill="#000" fill-opacity=".501961" d="M23 169l14 36 20 1z" /><g transform="translate(33.819565 148.891302) rotate(50.651739) scale(4.122909 26.160862)"><ellipse fill="#fff" fill-opacity=".501961" cx="0" cy="0" rx="1" ry="1" /></g><g transform="translate(69 233) rotate(90) scale(53 224)"><path d="M0 0h1760v2478H0z" fill="#fff" /></g></g></svg>