<svg xmlns="http://www.w3.org/2000/svg" viewBox="0 0 1748 2476"><filter id="b"><feGaussianBlur stdDeviation="12" /></filter><path d="M0 0h1748v2476H0z" fill="#e2e2e1" /><g filter="url(#b)" transform="scale(9.671875) translate(0.5 0.5)"><path d="M0 0h1748v2476H0z" fill="#787769" /><g transform="translate(56.151413 170.469648) rotate(223.550259) scale(33.377513 43.731366)"><ellipse fill="#6e6e6f" fill-opacity=".501961" cx="0" cy="0" rx="1" ry="1" /></g><path d="M0 0h1748v2476H0z" fill="#000" /><g transform="translate(163.873760 161.524630) rotate(276.570799) scale(178.362623 72.431420)"><ellipse fill="#fff" fill-opacity=".501961" cx="0" cy="0" rx="1" ry="1" /></g><ellipse fill="#000" fill-opacity=".501961" cx="33" cy="43" rx="23" ry="3" /><g transform="translate(88.798315 238.369376) rotate(85.181162) scale(26.675021 180.000000)"><ellipse fill="#fff" fill-opacity=".501961" cx="0" cy="0" rx="1" ry="1" /></g><path fill="#000" fill-opacity=".501961" d="M13 1e2l31-6L13 72z" /><ellipse fill="#fff" fill-opacity=".501961" cx="2" cy="119" rx="180" ry="20" /></g></svg>