<svg xmlns="http://www.w3.org/2000/svg" viewBox="0 0 2048 2732"><filter id="b"><feGaussianBlur stdDeviation="12" /></filter><path d="M0 0h2048v2732H0z" fill="#736b5d" /><g filter="url(#b)" transform="scale(10.671875) translate(0.5 0.5)"><ellipse fill="#000" fill-opacity=".501961" cx="4" cy="130" rx="11" ry="255" /><ellipse fill="#000" fill-opacity=".501961" cx="189" cy="135" rx="13" ry="255" /><g transform="translate(156.639230 36.943012) rotate(-6.699430) scale(15.332693 136.583057)"><ellipse fill="#6eb4ff" fill-opacity=".501961" cx="0" cy="0" rx="1" ry="1" /></g><g transform="translate(83.544078 147.319049) rotate(309.942663) scale(61.560361 44.265175)"><ellipse fill="#dbab60" fill-opacity=".501961" cx="0" cy="0" rx="1" ry="1" /></g><g transform="translate(146.706514 233.397050) rotate(344.275541) scale(32.175330 22.316192)"><ellipse fill="#ffc0b4" fill-opacity=".501961" cx="0" cy="0" rx="1" ry="1" /></g><g transform="translate(88.930402 68.381394) rotate(112.862254) scale(13.886539 33.730210)"><ellipse fill="#120413" fill-opacity=".501961" cx="0" cy="0" rx="1" ry="1" /></g><ellipse fill="#a5a893" fill-opacity=".501961" cx="77" cy="30" rx="63" ry="21" /><ellipse fill="#000" fill-opacity=".501961" cx="5" cy="117" rx="9" ry="255" /></g></svg>