<svg xmlns="http://www.w3.org/2000/svg" viewBox="0 0 1760 2484"><filter id="b"><feGaussianBlur stdDeviation="12" /></filter><path d="M0 0h1760v2484H0z" fill="#ada69c" /><g filter="url(#b)" transform="scale(9.703125) translate(0.5 0.5)"><g transform="translate(95.826653 62.750736) rotate(94.481628) scale(53.607936 79.672466)"><ellipse fill="#3a372a" fill-opacity=".501961" cx="0" cy="0" rx="1" ry="1" /></g><g transform="translate(149.021019 225.619027) rotate(211.363959) scale(43.596270 179.660015)"><ellipse fill="#fff" fill-opacity=".501961" cx="0" cy="0" rx="1" ry="1" /></g><g transform="translate(69.301020 198.276442) rotate(94.066482) scale(44.415684 25.148279)"><ellipse fill="#5a3321" fill-opacity=".501961" cx="0" cy="0" rx="1" ry="1" /></g><g transform="translate(127 170) rotate(93) scale(57 46)"><path d="M0 0h1760v2484H0z" fill="#4f3c27" /></g><ellipse fill="#fff" fill-opacity=".501961" cx="0" cy="95" rx="14" ry="254" /><ellipse fill="#fff" fill-opacity=".501961" cx="68" cy="253" rx="180" ry="12" /><ellipse fill="#fff" fill-opacity=".501961" cx="72" cy="0" rx="180" ry="11" /><ellipse fill="#fff" fill-opacity=".501961" cx="151" cy="226" rx="61" ry="31" /></g></svg>