<svg xmlns="http://www.w3.org/2000/svg" viewBox="0 0 1760 2443"><filter id="b"><feGaussianBlur stdDeviation="12" /></filter><path d="M0 0h1760v2443H0z" fill="#f5f5f5" /><g filter="url(#b)" transform="scale(9.542969) translate(0.5 0.5)"><ellipse fill="#727573" fill-opacity=".501961" cx="65" cy="60" rx="42" ry="39" /><path fill="#373837" fill-opacity=".501961" d="M102 27 72 74 46 48z" /><g transform="translate(44.798439 31.811935) rotate(70.083529) scale(14.355334 97.318155)"><ellipse fill="#fefefe" fill-opacity=".501961" cx="0" cy="0" rx="1" ry="1" /></g><path fill="#fff" fill-opacity=".501961" d="M-16 97 70 48 13 127z" /><path d="M0 0h1760v2443H0z" fill="#040404" /><g transform="translate(91 50) rotate(251) scale(17 31)"><path d="M0 0h1760v2443H0z" fill="#f0f1f0" /></g><path fill="#fff" fill-opacity=".501961" d="M158-16l41 271-215 13z" /><path fill="#181919" fill-opacity=".501961" d="M102 38 98 25 56 45z" /></g></svg>