<svg xmlns="http://www.w3.org/2000/svg" viewBox="0 0 2047 2716"><filter id="b"><feGaussianBlur stdDeviation="12" /></filter><path d="M0 0h2047v2716H0z" fill="#c7c7c7" /><g filter="url(#b)" transform="scale(10.609375) translate(0.5 0.5)"><g transform="translate(94.313614 120.554960) rotate(323.013184) scale(100.330336 68.216305)"><ellipse fill="gray" fill-opacity=".501961" cx="0" cy="0" rx="1" ry="1" /></g><g transform="translate(130.861679 239.228668) rotate(176.813789) scale(192.000000 26.947026)"><ellipse fill="#fff" fill-opacity=".501961" cx="0" cy="0" rx="1" ry="1" /></g><g transform="translate(99.645592 16.644193) rotate(88.298704) scale(22.346510 192.000000)"><ellipse fill="#fff" fill-opacity=".501961" cx="0" cy="0" rx="1" ry="1" /></g><g transform="translate(192.000000 201.953697) rotate(112.691042) scale(66.616153 27.050881)"><ellipse fill="#fff" fill-opacity=".501961" cx="0" cy="0" rx="1" ry="1" /></g><g transform="translate(192.000000 68.497508) rotate(349.879366) scale(14.444056 97.471681)"><ellipse fill="#fff" fill-opacity=".501961" cx="0" cy="0" rx="1" ry="1" /></g><path fill="#404040" fill-opacity=".501961" d="M13.882945 95.423548-14.473959 59.066182-16 112.566725 7.979874 135.570388z" /><g transform="translate(37.278840 95.409367) rotate(86.488405) scale(59.434151 9.907810)"><ellipse fill="#fafafa" fill-opacity=".501961" cx="0" cy="0" rx="1" ry="1" /></g><path fill="#7b7b7b" fill-opacity=".501961" d="M59 97 38 209l53 16z" /></g></svg>