<svg xmlns="http://www.w3.org/2000/svg" viewBox="0 0 1671 2731"><filter id="b"><feGaussianBlur stdDeviation="12" /></filter><path d="M0 0h1671v2731H0z" fill="#a7a7a7" /><g filter="url(#b)" transform="scale(10.667969) translate(0.5 0.5)"><g transform="translate(107.946404 66.400070) rotate(174.142934) scale(39.881856 50.051181)"><ellipse fill="#050606" fill-opacity=".501961" cx="0" cy="0" rx="1" ry="1" /></g><g transform="translate(64.331427 135.876595) rotate(257.474638) scale(37.526857 56.554143)"><ellipse fill="#161616" fill-opacity=".501961" cx="0" cy="0" rx="1" ry="1" /></g><g transform="translate(124 213) rotate(73) scale(98 129)"><path d="M0 0h1671v2731H0z" fill="#fff" /></g><path fill="#fff" fill-opacity=".501961" d="M-16 51 171 1 1-16z" /><g transform="translate(147.745299 131.376970) rotate(284.279869) scale(154.967991 15.801292)"><ellipse fill="#fff" fill-opacity=".501961" cx="0" cy="0" rx="1" ry="1" /></g><path fill="#141414" fill-opacity=".501961" d="M41 271 14 179l84 91z" /><g transform="translate(24.449588 74.773114) rotate(297.800721) scale(42.841121 17.351892)"><ellipse fill="#2f2f2f" fill-opacity=".501961" cx="0" cy="0" rx="1" ry="1" /></g><g transform="translate(6.480731 230.246111) rotate(244.863599) scale(56.293804 19.803224)"><ellipse fill="#fff" fill-opacity=".501961" cx="0" cy="0" rx="1" ry="1" /></g></g></svg>