<svg xmlns="http://www.w3.org/2000/svg" viewBox="0 0 2048 2732"><filter id="b"><feGaussianBlur stdDeviation="12" /></filter><path d="M0 0h2048v2732H0z" fill="#8d796b" /><g filter="url(#b)" transform="scale(10.671875) translate(0.5 0.5)"><g transform="translate(41.377900 110.501653) rotate(184.354789) scale(34.474582 150.136599)"><ellipse fill="#d0d4bb" fill-opacity=".501961" cx="0" cy="0" rx="1" ry="1" /></g><g transform="translate(190.017598 116.087039) rotate(88.177260) scale(191.000000 9.911741)"><ellipse fill="#000" fill-opacity=".501961" cx="0" cy="0" rx="1" ry="1" /></g><g transform="translate(28.823786 237.907540) rotate(347.828504) scale(19.343123 64.629398)"><ellipse fill="#2cbfd6" fill-opacity=".501961" cx="0" cy="0" rx="1" ry="1" /></g><ellipse fill="#000" fill-opacity=".501961" cx="0" cy="129" rx="6" ry="236" /><ellipse fill="#ca5d4a" fill-opacity=".501961" cx="80" cy="144" rx="26" ry="71" /><g transform="translate(123.667405 241.967961) rotate(239.807169) scale(28.566256 67.620872)"><ellipse fill="#4a4641" fill-opacity=".501961" cx="0" cy="0" rx="1" ry="1" /></g><g transform="translate(159.629668 117.579631) rotate(10.385527) scale(18.154729 115.549037)"><ellipse fill="#584b40" fill-opacity=".501961" cx="0" cy="0" rx="1" ry="1" /></g><ellipse fill="#d89b76" fill-opacity=".501961" cx="59" cy="14" rx="52" ry="61" /></g></svg>