<svg xmlns="http://www.w3.org/2000/svg" viewBox="0 0 2048 2732"><filter id="b"><feGaussianBlur stdDeviation="12" /></filter><path d="M0 0h2048v2732H0z" fill="#666462" /><g filter="url(#b)" transform="scale(10.671875) translate(0.5 0.5)"><g transform="translate(12.818564 63.675760) rotate(191.955403) scale(86.261719 24.532714)"><ellipse fill="#ffffb6" fill-opacity=".501961" cx="0" cy="0" rx="1" ry="1" /></g><path fill="#191624" fill-opacity=".501961" d="M207-12 168 153 46 14z" /><ellipse fill="#91bddf" fill-opacity=".501961" cx="175" cy="185" rx="46" ry="46" /><g transform="translate(40.247310 200.301223) rotate(159.566328) scale(18.871742 57.946939)"><ellipse fill="#c2c299" fill-opacity=".501961" cx="0" cy="0" rx="1" ry="1" /></g><g transform="translate(168.082876 216.661531) rotate(259.217697) scale(38.280880 10.964694)"><ellipse fill="#00172f" fill-opacity=".501961" cx="0" cy="0" rx="1" ry="1" /></g><path fill="#2d0400" fill-opacity=".501961" d="M57 11 6 26 63 63z" /><path d="M0 0h2048v2732H0z" fill="#183747" /><ellipse fill="#ffe5a1" fill-opacity=".501961" cx="34" cy="2" rx="34" ry="8" /></g></svg>