<svg xmlns="http://www.w3.org/2000/svg" viewBox="0 0 2048 2732"><filter id="b"><feGaussianBlur stdDeviation="12" /></filter><path d="M0 0h2048v2732H0z" fill="#524e48" /><g filter="url(#b)" transform="scale(10.671875) translate(0.5 0.5)"><g transform="translate(88.187929 58.056511) rotate(164.759140) scale(75.452537 47.339148)"><ellipse fill="#b09e72" fill-opacity=".501961" cx="0" cy="0" rx="1" ry="1" /></g><g transform="translate(80.090694 159.747678) rotate(20.505937) scale(53.453296 11.739936)"><ellipse fill="#ffede1" fill-opacity=".501961" cx="0" cy="0" rx="1" ry="1" /></g><ellipse fill="#000" fill-opacity=".501961" cx="191" cy="120" rx="19" ry="174" /><g transform="translate(0.000000 108.094152) rotate(89.441476) scale(187.094646 16.162485)"><ellipse fill="#000" fill-opacity=".501961" cx="0" cy="0" rx="1" ry="1" /></g><g transform="translate(78.036548 193.665220) rotate(113.884116) scale(41.514983 8.055905)"><ellipse fill="#f3edff" fill-opacity=".501961" cx="0" cy="0" rx="1" ry="1" /></g><path fill="#e1c5b1" fill-opacity=".501961" d="M95 143l50-56-6 54z" /><g transform="translate(183.851860 134.282014) rotate(188.810035) scale(37.947575 73.763630)"><ellipse fill="#000006" fill-opacity=".501961" cx="0" cy="0" rx="1" ry="1" /></g><path fill="#9297af" fill-opacity=".501961" d="M15.105034 198.977661 15.731789 252.474933 17.952654 251.561814 65.257077 157.046925z" /></g></svg>