<svg xmlns="http://www.w3.org/2000/svg" viewBox="0 0 2048 2732"><filter id="b"><feGaussianBlur stdDeviation="12" /></filter><path d="M0 0h2048v2732H0z" fill="#7c7056" /><g filter="url(#b)" transform="scale(10.671875) translate(0.5 0.5)"><g transform="translate(26.774488 238.305328) rotate(127.326018) scale(68.372400 58.331868)"><ellipse fill="#000" fill-opacity=".501961" cx="0" cy="0" rx="1" ry="1" /></g><g transform="translate(170.571770 230.191208) rotate(112.715325) scale(51.735509 47.485564)"><ellipse fill="#000" fill-opacity=".501961" cx="0" cy="0" rx="1" ry="1" /></g><g transform="translate(134.080599 119.264600) rotate(54.401706) scale(33.516858 101.974336)"><ellipse fill="#fec494" fill-opacity=".501961" cx="0" cy="0" rx="1" ry="1" /></g><g transform="translate(16.734357 13.218379) rotate(215.665406) scale(79.423378 33.418791)"><ellipse fill="#ead969" fill-opacity=".501961" cx="0" cy="0" rx="1" ry="1" /></g><ellipse fill="#93e6ff" fill-opacity=".501961" cx="139" cy="26" rx="18" ry="33" /><g transform="translate(121.625780 181.011415) rotate(255.377048) scale(16.925321 28.649984)"><ellipse fill="#ffce99" fill-opacity=".501961" cx="0" cy="0" rx="1" ry="1" /></g><g transform="translate(184.830278 63.018454) rotate(310.538481) scale(62.181243 29.891662)"><ellipse fill="#dcc5b8" fill-opacity=".501961" cx="0" cy="0" rx="1" ry="1" /></g><ellipse fill="#000119" fill-opacity=".501961" cx="183" cy="238" rx="58" ry="58" /></g></svg>