<svg xmlns="http://www.w3.org/2000/svg" viewBox="0 0 2048 2732"><filter id="b"><feGaussianBlur stdDeviation="12" /></filter><path d="M0 0h2048v2732H0z" fill="#7c6d5b" /><g filter="url(#b)" transform="scale(10.671875) translate(0.5 0.5)"><g transform="translate(173.185492 167.283368) rotate(351.355166) scale(100.750119 34.442975)"><ellipse fill="#000734" fill-opacity=".501961" cx="0" cy="0" rx="1" ry="1" /></g><ellipse fill="#e9ebd7" fill-opacity=".501961" cx="109" cy="237" rx="67" ry="32" /><g transform="translate(41.210834 55.671380) rotate(281.836543) scale(99.285457 30.968423)"><ellipse fill="#f5862d" fill-opacity=".501961" cx="0" cy="0" rx="1" ry="1" /></g><g transform="translate(0.000000 183.949758) rotate(-36.696201) scale(28.710203 56.389570)"><ellipse fill="#000b24" fill-opacity=".501961" cx="0" cy="0" rx="1" ry="1" /></g><ellipse fill="#ffffbe" fill-opacity=".501961" cx="167" cy="9" rx="19" ry="26" /><ellipse fill="#000" fill-opacity=".501961" cx="0" cy="123" rx="6" ry="255" /><g transform="translate(148.205216 114.863340) rotate(297.181032) scale(47.340714 21.525985)"><ellipse fill="#aca8a3" fill-opacity=".501961" cx="0" cy="0" rx="1" ry="1" /></g><ellipse fill="#000" fill-opacity=".501961" cx="191" cy="132" rx="6" ry="245" /></g></svg>