<svg xmlns="http://www.w3.org/2000/svg" viewBox="0 0 2048 2732"><filter id="b"><feGaussianBlur stdDeviation="12" /></filter><path d="M0 0h2048v2732H0z" fill="#524e48" /><g filter="url(#b)" transform="scale(10.671875) translate(0.5 0.5)"><ellipse fill="#a6ad80" fill-opacity=".501961" cx="105" cy="50" rx="53" ry="53" /><g transform="translate(78.548647 159.809165) rotate(20.656049) scale(47.747930 14.711938)"><ellipse fill="#fae5d9" fill-opacity=".501961" cx="0" cy="0" rx="1" ry="1" /></g><g transform="translate(191.000000 104.513109) rotate(270.900444) scale(180.387582 16.988824)"><ellipse fill="#000" fill-opacity=".501961" cx="0" cy="0" rx="1" ry="1" /></g><ellipse fill="#000" fill-opacity=".501961" cx="5" cy="129" rx="10" ry="255" /><path fill="#ecedff" fill-opacity=".501961" d="M52 229l40-85-13 78z" /><ellipse fill="#e17d48" fill-opacity=".501961" cx="37" cy="73" rx="23" ry="37" /><path fill="#f6cfc2" fill-opacity=".501961" d="M90.503956 147.220657 146.786247 140.97185 140.765953 133.703923 125.205638 110.528913z" /><g transform="translate(184.832016 123.583329) rotate(108.123289) scale(81.444088 34.463870)"><ellipse fill="#000004" fill-opacity=".501961" cx="0" cy="0" rx="1" ry="1" /></g></g></svg>