<svg xmlns="http://www.w3.org/2000/svg" viewBox="0 0 2048 2732"><filter id="b"><feGaussianBlur stdDeviation="12" /></filter><path d="M0 0h2048v2732H0z" fill="#7c7056" /><g filter="url(#b)" transform="scale(10.671875) translate(0.5 0.5)"><g transform="translate(32.827166 227.064660) rotate(109.617568) scale(52.202379 55.188864)"><ellipse fill="#000" fill-opacity=".501961" cx="0" cy="0" rx="1" ry="1" /></g><ellipse fill="#000" fill-opacity=".501961" cx="176" cy="232" rx="54" ry="54" /><g transform="translate(191.000000 98.821373) rotate(327.217755) scale(149.525342 55.116822)"><ellipse fill="#e5b58f" fill-opacity=".501961" cx="0" cy="0" rx="1" ry="1" /></g><g transform="translate(0.000000 12.937256) rotate(208.180744) scale(96.950371 30.586375)"><ellipse fill="#eddd6b" fill-opacity=".501961" cx="0" cy="0" rx="1" ry="1" /></g><g transform="translate(138.895239 27.932411) rotate(357.104915) scale(18.265106 32.335995)"><ellipse fill="#8fe1ff" fill-opacity=".501961" cx="0" cy="0" rx="1" ry="1" /></g><ellipse fill="#432b1c" fill-opacity=".501961" cx="164" cy="154" rx="60" ry="11" /><g transform="translate(67.283605 142.359606) rotate(298.943245) scale(38.969104 17.433253)"><ellipse fill="#fbbb75" fill-opacity=".501961" cx="0" cy="0" rx="1" ry="1" /></g><g transform="translate(117.541391 77.068732) rotate(149.151867) scale(32.164414 14.183854)"><ellipse fill="#1c3725" fill-opacity=".501961" cx="0" cy="0" rx="1" ry="1" /></g></g></svg>