<svg xmlns="http://www.w3.org/2000/svg" viewBox="0 0 2048 2732"><filter id="b"><feGaussianBlur stdDeviation="12" /></filter><path d="M0 0h2048v2732H0z" fill="#7c6d5b" /><g filter="url(#b)" transform="scale(10.671875) translate(0.5 0.5)"><g transform="translate(118.005327 235.432937) rotate(377.517482) scale(73.028234 17.051277)"><ellipse fill="#fffff7" fill-opacity=".501961" cx="0" cy="0" rx="1" ry="1" /></g><g transform="translate(191.000000 166.431221) rotate(167.257728) scale(87.855270 34.654527)"><ellipse fill="#00001a" fill-opacity=".501961" cx="0" cy="0" rx="1" ry="1" /></g><g transform="translate(41.150271 52.619072) rotate(283.739565) scale(78.827842 31.050429)"><ellipse fill="#ff8526" fill-opacity=".501961" cx="0" cy="0" rx="1" ry="1" /></g><g transform="translate(18.029302 196.263174) rotate(70.500934) scale(115.924989 10.283420)"><ellipse fill="#00000f" fill-opacity=".501961" cx="0" cy="0" rx="1" ry="1" /></g><path d="M0 0h2048v2732H0z" fill="#ffffbf" /><ellipse fill="#000" fill-opacity=".501961" cx="2" cy="125" rx="4" ry="253" /><ellipse fill="#000" fill-opacity=".501961" cx="191" cy="131" rx="6" ry="255" /><path fill="#cdbfa8" fill-opacity=".501961" d="M123 120l65 11-42-93z" /></g></svg>