<svg xmlns="http://www.w3.org/2000/svg" viewBox="0 0 2048 2732"><filter id="b"><feGaussianBlur stdDeviation="12" /></filter><path d="M0 0h2048v2732H0z" fill="#8d796b" /><g filter="url(#b)" transform="scale(10.671875) translate(0.5 0.5)"><g transform="translate(44.797800 97.677140) rotate(276.088737) scale(161.428708 35.662871)"><ellipse fill="#d1d2b8" fill-opacity=".501961" cx="0" cy="0" rx="1" ry="1" /></g><g transform="translate(191.000000 135.930713) rotate(176.673177) scale(12.040289 186.472229)"><ellipse fill="#000" fill-opacity=".501961" cx="0" cy="0" rx="1" ry="1" /></g><g transform="translate(26.745491 234.230961) rotate(82.227366) scale(54.386516 19.284942)"><ellipse fill="#25bfd8" fill-opacity=".501961" cx="0" cy="0" rx="1" ry="1" /></g><ellipse fill="#000" fill-opacity=".501961" cx="0" cy="118" rx="6" ry="255" /><g transform="translate(153.262420 202.228376) rotate(358.072936) scale(21.068144 80.457013)"><ellipse fill="#464641" fill-opacity=".501961" cx="0" cy="0" rx="1" ry="1" /></g><ellipse fill="#c26450" fill-opacity=".501961" cx="83" cy="129" rx="29" ry="88" /><g transform="translate(94.358309 244.703407) rotate(23.069124) scale(29.060151 14.859017)"><ellipse fill="#2d1b19" fill-opacity=".501961" cx="0" cy="0" rx="1" ry="1" /></g><ellipse fill="#6a4e42" fill-opacity=".501961" cx="164" cy="23" rx="22" ry="130" /></g></svg>