<svg xmlns="http://www.w3.org/2000/svg" viewBox="0 0 2048 2732"><filter id="b"><feGaussianBlur stdDeviation="12" /></filter><path d="M0 0h2048v2732H0z" fill="#666462" /><g filter="url(#b)" transform="scale(10.671875) translate(0.5 0.5)"><g transform="translate(17.520578 64.854530) rotate(372.921968) scale(82.941024 23.998175)"><ellipse fill="#ffffb6" fill-opacity=".501961" cx="0" cy="0" rx="1" ry="1" /></g><g transform="translate(117.183078 29.627092) rotate(177.915185) scale(101.063838 24.826655)"><ellipse fill="#1f0d0f" fill-opacity=".501961" cx="0" cy="0" rx="1" ry="1" /></g><ellipse fill="#92bddf" fill-opacity=".501961" cx="173" cy="186" rx="44" ry="44" /><g transform="translate(161.389923 90.628137) rotate(335.246905) scale(63.534785 27.219268)"><ellipse fill="#00152b" fill-opacity=".501961" cx="0" cy="0" rx="1" ry="1" /></g><g transform="translate(37.746061 197.097184) rotate(71.252584) scale(50.025282 18.396704)"><ellipse fill="#c4caa1" fill-opacity=".501961" cx="0" cy="0" rx="1" ry="1" /></g><g transform="translate(169.961831 242.504882) rotate(-6.521913) scale(11.842825 57.975884)"><ellipse fill="#001329" fill-opacity=".501961" cx="0" cy="0" rx="1" ry="1" /></g><ellipse fill="#ffdd9b" fill-opacity=".501961" cx="31" cy="3" rx="37" ry="7" /><g transform="translate(6.610428 59.337289) rotate(112.354342) scale(24.437621 55.581957)"><ellipse fill="#ffd0a4" fill-opacity=".501961" cx="0" cy="0" rx="1" ry="1" /></g></g></svg>