<svg xmlns="http://www.w3.org/2000/svg" viewBox="0 0 2048 1536"><filter id="b"><feGaussianBlur stdDeviation="12" /></filter><path d="M0 0h2048v1536H0z" fill="#a17e70" /><g filter="url(#b)" transform="scale(8.000000) translate(0.5 0.5)"><g transform="translate(119.934997 11.043030) rotate(90.513194) scale(14.062551 182.006915)"><ellipse fill="#fff" fill-opacity=".501961" cx="0" cy="0" rx="1" ry="1" /></g><g transform="translate(74.470422 66.183475) rotate(175.971267) scale(63.078284 41.724426)"><ellipse fill="#080000" fill-opacity=".501961" cx="0" cy="0" rx="1" ry="1" /></g><g transform="translate(128 191) rotate(-1) scale(255 31)"><path d="M0 0h2048v1536H0z" fill="#fff" /></g><ellipse fill="#360000" fill-opacity=".501961" cx="210" cy="62" rx="39" ry="39" /><g transform="translate(3.378994 64.306672) rotate(90.258627) scale(137.394310 8.513239)"><ellipse fill="#fff" fill-opacity=".501961" cx="0" cy="0" rx="1" ry="1" /></g><g transform="translate(132.473346 138.999055) rotate(155.144510) scale(65.030492 27.794622)"><ellipse fill="#61291b" fill-opacity=".501961" cx="0" cy="0" rx="1" ry="1" /></g><ellipse fill="#fff" fill-opacity=".501961" cx="141" cy="8" rx="255" ry="17" /><g transform="translate(67.910174 95.581078) rotate(292.110160) scale(15.286279 40.572937)"><ellipse fill="#1a0000" fill-opacity=".501961" cx="0" cy="0" rx="1" ry="1" /></g></g></svg>