<svg xmlns="http://www.w3.org/2000/svg" viewBox="0 0 2048 2732"><filter id="b"><feGaussianBlur stdDeviation="12" /></filter><path d="M0 0h2048v2732H0z" fill="#7c7056" /><g filter="url(#b)" transform="scale(10.671875) translate(0.5 0.5)"><g transform="translate(93.519346 255.000000) rotate(92.978836) scale(68.994541 191.000000)"><ellipse fill="#000006" fill-opacity=".501961" cx="0" cy="0" rx="1" ry="1" /></g><g transform="translate(129.472988 118.630625) rotate(147.086270) scale(102.563632 31.386932)"><ellipse fill="#ffc696" fill-opacity=".501961" cx="0" cy="0" rx="1" ry="1" /></g><g transform="translate(109.685488 206.064385) rotate(186.430917) scale(21.590495 55.823879)"><ellipse fill="#ddb382" fill-opacity=".501961" cx="0" cy="0" rx="1" ry="1" /></g><g transform="translate(28.992630 27.210019) rotate(207.217097) scale(63.021094 31.170733)"><ellipse fill="#e9d868" fill-opacity=".501961" cx="0" cy="0" rx="1" ry="1" /></g><g transform="translate(141.643012 21.240265) rotate(184.271058) scale(18.687024 41.295602)"><ellipse fill="#82d4ff" fill-opacity=".501961" cx="0" cy="0" rx="1" ry="1" /></g><ellipse fill="#000012" fill-opacity=".501961" cx="168" cy="220" rx="42" ry="42" /><g transform="translate(182.115809 65.667987) rotate(38.862992) scale(29.963455 57.794960)"><ellipse fill="#dcc5b8" fill-opacity=".501961" cx="0" cy="0" rx="1" ry="1" /></g><ellipse fill="#1d0814" fill-opacity=".501961" cx="32" cy="222" rx="49" ry="49" /></g></svg>