<svg xmlns="http://www.w3.org/2000/svg" viewBox="0 0 2048 2732"><filter id="b"><feGaussianBlur stdDeviation="12" /></filter><path d="M0 0h2048v2732H0z" fill="#8d796b" /><g filter="url(#b)" transform="scale(10.671875) translate(0.5 0.5)"><ellipse fill="#d0d0b7" fill-opacity=".501961" cx="39" cy="101" rx="34" ry="255" /><g transform="translate(191.000000 125.679605) rotate(266.070984) scale(190.003776 15.059596)"><ellipse fill="#000" fill-opacity=".501961" cx="0" cy="0" rx="1" ry="1" /></g><ellipse fill="#000" fill-opacity=".501961" cx="2" cy="139" rx="4" ry="214" /><g transform="translate(28.916210 233.712838) rotate(165.630497) scale(18.065644 66.695998)"><ellipse fill="#2cbed6" fill-opacity=".501961" cx="0" cy="0" rx="1" ry="1" /></g><g transform="translate(150.583282 182.496997) rotate(97.714029) scale(191.000000 26.640736)"><ellipse fill="#605249" fill-opacity=".501961" cx="0" cy="0" rx="1" ry="1" /></g><ellipse fill="#c42914" fill-opacity=".501961" cx="85" cy="160" rx="30" ry="20" /><ellipse fill="#d89b76" fill-opacity=".501961" cx="61" cy="22" rx="51" ry="51" /><g transform="translate(102.445557 251.651599) rotate(211.822772) scale(47.672462 13.814285)"><ellipse fill="#381e19" fill-opacity=".501961" cx="0" cy="0" rx="1" ry="1" /></g></g></svg>