<svg xmlns="http://www.w3.org/2000/svg" viewBox="0 0 2048 2732"><filter id="b"><feGaussianBlur stdDeviation="12" /></filter><path d="M0 0h2048v2732H0z" fill="#524e48" /><g filter="url(#b)" transform="scale(10.671875) translate(0.5 0.5)"><ellipse fill="#a3aa7d" fill-opacity=".501961" cx="108" cy="50" rx="55" ry="55" /><g transform="translate(76.793123 159.422501) rotate(290.274199) scale(16.346198 46.908245)"><ellipse fill="#f4e1d5" fill-opacity=".501961" cx="0" cy="0" rx="1" ry="1" /></g><g transform="translate(191.000000 126.992039) rotate(89.920044) scale(179.580327 17.667316)"><ellipse fill="#000" fill-opacity=".501961" cx="0" cy="0" rx="1" ry="1" /></g><ellipse fill="#000" fill-opacity=".501961" cx="0" cy="118" rx="16" ry="255" /><g transform="translate(76.841639 198.347520) rotate(383.124386) scale(10.000789 33.762993)"><ellipse fill="#e5e0fa" fill-opacity=".501961" cx="0" cy="0" rx="1" ry="1" /></g><g transform="translate(42 70) rotate(6) scale(49 60)"><path d="M0 0h2048v2732H0z" fill="#df814d" /></g><g transform="translate(176.135377 141.816222) rotate(372.115128) scale(34.522967 60.359292)"><ellipse fill="#000008" fill-opacity=".501961" cx="0" cy="0" rx="1" ry="1" /></g><path fill="#ffdfd0" fill-opacity=".501961" d="M128 111l19 31-52-1z" /></g></svg>