<svg xmlns="http://www.w3.org/2000/svg" viewBox="0 0 2048 2732"><filter id="b"><feGaussianBlur stdDeviation="12" /></filter><path d="M0 0h2048v2732H0z" fill="#7c6d5b" /><g filter="url(#b)" transform="scale(10.671875) translate(0.5 0.5)"><g transform="translate(111.539974 237.022511) rotate(284.339065) scale(18.835867 76.764324)"><ellipse fill="#fffff1" fill-opacity=".501961" cx="0" cy="0" rx="1" ry="1" /></g><g transform="translate(177.862860 167.609269) rotate(-13.370090) scale(74.097943 36.059555)"><ellipse fill="#00001f" fill-opacity=".501961" cx="0" cy="0" rx="1" ry="1" /></g><g transform="translate(49.357139 37.416779) rotate(286.885176) scale(97.974304 34.082251)"><ellipse fill="#f38126" fill-opacity=".501961" cx="0" cy="0" rx="1" ry="1" /></g><g transform="translate(21.244694 201.422080) rotate(-18.412945) scale(11.127810 93.295335)"><ellipse fill="#000412" fill-opacity=".501961" cx="0" cy="0" rx="1" ry="1" /></g><path d="M0 0h2048v2732H0z" fill="#ffffc7" /><ellipse fill="#000" fill-opacity=".501961" cx="0" cy="140" rx="6" ry="254" /><g transform="translate(153 115) rotate(227) scale(39 62)"><path d="M0 0h2048v2732H0z" fill="#bdb0af" /></g><g transform="translate(191.000000 142.301436) rotate(179.789349) scale(5.664985 162.761850)"><ellipse fill="#000" fill-opacity=".501961" cx="0" cy="0" rx="1" ry="1" /></g></g></svg>