<svg xmlns="http://www.w3.org/2000/svg" viewBox="0 0 2048 2732"><filter id="b"><feGaussianBlur stdDeviation="12" /></filter><path d="M0 0h2048v2732H0z" fill="#666462" /><g filter="url(#b)" transform="scale(10.671875) translate(0.5 0.5)"><g transform="translate(32.732546 69.153757) rotate(191.160450) scale(67.665201 22.616198)"><ellipse fill="#ffffb7" fill-opacity=".501961" cx="0" cy="0" rx="1" ry="1" /></g><ellipse fill="#1f1f2e" fill-opacity=".501961" cx="165" cy="60" rx="78" ry="78" /><ellipse fill="#91bddf" fill-opacity=".501961" cx="174" cy="184" rx="45" ry="45" /><ellipse fill="#190c03" fill-opacity=".501961" cx="69" cy="30" rx="53" ry="22" /><path fill="#bcbb99" fill-opacity=".501961" d="M85 271 16 224l6-114z" /><g transform="translate(167.764948 228.007075) rotate(264.828710) scale(44.962004 11.621617)"><ellipse fill="#00162e" fill-opacity=".501961" cx="0" cy="0" rx="1" ry="1" /></g><g transform="translate(11.744052 63.988160) rotate(112.954343) scale(26.682353 47.003245)"><ellipse fill="#ffd5a5" fill-opacity=".501961" cx="0" cy="0" rx="1" ry="1" /></g><path fill="#20262d" fill-opacity=".501961" d="M41.091851 117.573888 68.623902 183.477913 59.154024 83.329353-16 117.963844z" /></g></svg>