<svg xmlns="http://www.w3.org/2000/svg" viewBox="0 0 2048 1536"><filter id="b"><feGaussianBlur stdDeviation="12" /></filter><path d="M0 0h2048v1536H0z" fill="#a17e70" /><g filter="url(#b)" transform="scale(8.000000) translate(0.5 0.5)"><g transform="translate(74.779348 68.632244) rotate(176.533213) scale(59.580232 42.961660)"><ellipse fill="#060000" fill-opacity=".501961" cx="0" cy="0" rx="1" ry="1" /></g><ellipse fill="#fff" fill-opacity=".501961" cx="111" cy="8" rx="255" ry="17" /><g transform="translate(209.775655 63.268926) rotate(132.064898) scale(37.778013 42.084481)"><ellipse fill="#3c0000" fill-opacity=".501961" cx="0" cy="0" rx="1" ry="1" /></g><ellipse fill="#fff" fill-opacity=".501961" cx="179" cy="184" rx="255" ry="10" /><g transform="translate(2.090411 93.879971) rotate(269.698511) scale(99.613071 9.497101)"><ellipse fill="#fff" fill-opacity=".501961" cx="0" cy="0" rx="1" ry="1" /></g><g transform="translate(123.753340 146.696075) rotate(85.696900) scale(28.941356 54.092965)"><ellipse fill="#5b2115" fill-opacity=".501961" cx="0" cy="0" rx="1" ry="1" /></g><ellipse fill="#fff" fill-opacity=".501961" cx="164" cy="10" rx="255" ry="14" /><g transform="translate(225.938742 145.071676) rotate(265.274856) scale(31.726584 24.365958)"><ellipse fill="#c1260e" fill-opacity=".501961" cx="0" cy="0" rx="1" ry="1" /></g></g></svg>