<svg xmlns="http://www.w3.org/2000/svg" viewBox="0 0 1760 2484"><filter id="b"><feGaussianBlur stdDeviation="12" /></filter><path d="M0 0h1760v2484H0z" fill="#ada69c" /><g filter="url(#b)" transform="scale(9.703125) translate(0.5 0.5)"><ellipse fill="#3c392d" fill-opacity=".501961" cx="92" cy="64" rx="82" ry="54" /><g transform="translate(154.652287 216.420759) rotate(121.914657) scale(180.000000 44.282758)"><ellipse fill="#fff" fill-opacity=".501961" cx="0" cy="0" rx="1" ry="1" /></g><g transform="translate(127.972040 165.263872) rotate(88.918278) scale(36.038848 25.928496)"><ellipse fill="#594e38" fill-opacity=".501961" cx="0" cy="0" rx="1" ry="1" /></g><g transform="translate(64.995114 187.187670) rotate(275.240355) scale(56.589702 29.729156)"><ellipse fill="#693b26" fill-opacity=".501961" cx="0" cy="0" rx="1" ry="1" /></g><ellipse fill="#fff" fill-opacity=".501961" cx="4" cy="106" rx="10" ry="249" /><g transform="translate(97.764252 255.000000) rotate(180.664600) scale(160.891797 12.975030)"><ellipse fill="#fff" fill-opacity=".501961" cx="0" cy="0" rx="1" ry="1" /></g><ellipse fill="#fff" fill-opacity=".501961" cx="159" cy="3" rx="180" ry="8" /><g transform="translate(158.162406 222.684568) rotate(180.649495) scale(67.704356 28.722870)"><ellipse fill="#fff" fill-opacity=".501961" cx="0" cy="0" rx="1" ry="1" /></g></g></svg>