<svg xmlns="http://www.w3.org/2000/svg" viewBox="0 0 2048 1673"><filter id="b"><feGaussianBlur stdDeviation="12" /></filter><path d="M0 0h2048v1673H0z" fill="#c1c1c1" /><g filter="url(#b)" transform="scale(8.000000) translate(0.5 0.5)"><g transform="translate(165.282382 59.202717) rotate(160.118275) scale(76.042819 14.945743)"><ellipse fill="#000" fill-opacity=".501961" cx="0" cy="0" rx="1" ry="1" /></g><g transform="translate(155.199210 121.768780) rotate(246.608494) scale(34.834762 19.676054)"><ellipse fill="#000" fill-opacity=".501961" cx="0" cy="0" rx="1" ry="1" /></g><path d="M0 0h2048v1673H0z" fill="#000" /><g transform="translate(85.451564 16.653057) rotate(271.144248) scale(36.125504 106.242099)"><ellipse fill="#fff" fill-opacity=".501961" cx="0" cy="0" rx="1" ry="1" /></g><g transform="translate(32.574682 186.574517) rotate(221.109151) scale(32.620473 61.262767)"><ellipse fill="#fff" fill-opacity=".501961" cx="0" cy="0" rx="1" ry="1" /></g><path fill="#000" fill-opacity=".501961" d="M8.340618 157.651139 44.851242 107.830977 50.672807 134.464108 81.906027 115.554814z" /><path d="M0 0h2048v1673H0z" fill="#6f6f6f" /><ellipse fill="#fff" fill-opacity=".501961" cx="253" cy="64" rx="16" ry="208" /></g></svg>