<svg xmlns="http://www.w3.org/2000/svg" viewBox="0 0 1671 2731"><filter id="b"><feGaussianBlur stdDeviation="12" /></filter><path d="M0 0h1671v2731H0z" fill="#a7a7a7" /><g filter="url(#b)" transform="scale(10.667969) translate(0.5 0.5)"><g transform="translate(108.568989 66.978007) rotate(173.184001) scale(39.690212 48.808046)"><ellipse fill="#020202" fill-opacity=".501961" cx="0" cy="0" rx="1" ry="1" /></g><g transform="translate(61.533177 142.771784) rotate(174.433430) scale(57.634944 30.548135)"><ellipse fill="#0c0c0c" fill-opacity=".501961" cx="0" cy="0" rx="1" ry="1" /></g><g transform="translate(126 223) rotate(70) scale(122 109)"><path d="M0 0h1671v2731H0z" fill="#fff" /></g><g transform="translate(35.407456 0.000000) rotate(45.475224) scale(25.950092 155.000000)"><ellipse fill="#fff" fill-opacity=".501961" cx="0" cy="0" rx="1" ry="1" /></g><g transform="translate(141.347421 152.961049) rotate(283.628587) scale(126.041473 15.406799)"><ellipse fill="#fff" fill-opacity=".501961" cx="0" cy="0" rx="1" ry="1" /></g><g transform="translate(47.729908 245.699707) rotate(65.754592) scale(71.008418 13.354421)"><ellipse fill="#101011" fill-opacity=".501961" cx="0" cy="0" rx="1" ry="1" /></g><g transform="translate(30.440402 64.945657) rotate(397.657855) scale(16.413338 63.868992)"><ellipse fill="#3a3a3a" fill-opacity=".501961" cx="0" cy="0" rx="1" ry="1" /></g><g transform="translate(6.870502 231.725672) rotate(-28.162499) scale(19.331433 44.956789)"><ellipse fill="#fff" fill-opacity=".501961" cx="0" cy="0" rx="1" ry="1" /></g></g></svg>