<svg xmlns="http://www.w3.org/2000/svg" viewBox="0 0 1760 2478"><filter id="b"><feGaussianBlur stdDeviation="12" /></filter><path d="M0 0h1760v2478H0z" fill="#e6e6e3" /><g filter="url(#b)" transform="scale(9.679688) translate(0.5 0.5)"><g transform="translate(54 52) rotate(180) scale(54 57)"><path d="M0 0h1760v2478H0z" fill="#000" /></g><g transform="translate(50.942835 144.750478) rotate(33.614136) scale(26.536584 36.170326)"><ellipse fill="#070909" fill-opacity=".501961" cx="0" cy="0" rx="1" ry="1" /></g><g transform="translate(58.023350 53.633777) rotate(322.289368) scale(21.094248 30.868551)"><ellipse fill="#151000" fill-opacity=".501961" cx="0" cy="0" rx="1" ry="1" /></g><g transform="translate(140.857289 134.320697) rotate(177.117011) scale(61.926884 174.919611)"><ellipse fill="#fff" fill-opacity=".501961" cx="0" cy="0" rx="1" ry="1" /></g><path fill="#000" fill-opacity=".501961" d="M53 204 21 166l18 41z" /><path fill="#fff" fill-opacity=".501961" d="M48.049736 125.286391-16 199.130172 47.435728 140.486227 54.823899 151.672808z" /><ellipse fill="#fffffb" fill-opacity=".501961" cx="14" cy="29" rx="19" ry="128" /><g transform="translate(89.186968 228.225452) rotate(256.671116) scale(33.104558 171.796755)"><ellipse fill="#fff" fill-opacity=".501961" cx="0" cy="0" rx="1" ry="1" /></g></g></svg>