<svg xmlns="http://www.w3.org/2000/svg" viewBox="0 0 2048 2732"><filter id="b"><feGaussianBlur stdDeviation="12" /></filter><path d="M0 0h2048v2732H0z" fill="#857369" /><g filter="url(#b)" transform="scale(10.671875) translate(0.5 0.5)"><g transform="translate(105.766640 128.325567) rotate(222.021814) scale(66.508398 28.054652)"><ellipse fill="#261f31" fill-opacity=".501961" cx="0" cy="0" rx="1" ry="1" /></g><g transform="translate(147.526605 62.180653) rotate(161.362674) scale(29.281248 38.999781)"><ellipse fill="#041233" fill-opacity=".501961" cx="0" cy="0" rx="1" ry="1" /></g><ellipse fill="#e4b58f" fill-opacity=".501961" cx="41" cy="230" rx="46" ry="59" /><g transform="translate(97 64) rotate(127) scale(41 36)"><path d="M0 0h2048v2732H0z" fill="#fff5ca" /></g><g transform="translate(66.556457 32.661437) rotate(255.042627) scale(28.011305 11.095204)"><ellipse fill="#00000a" fill-opacity=".501961" cx="0" cy="0" rx="1" ry="1" /></g><g transform="translate(174.926990 198.010585) rotate(76.382272) scale(43.137206 16.306507)"><ellipse fill="#e2c2b1" fill-opacity=".501961" cx="0" cy="0" rx="1" ry="1" /></g><ellipse fill="#351a2e" fill-opacity=".501961" cx="138" cy="221" rx="28" ry="18" /><path fill="#c9cbb8" fill-opacity=".501961" d="M207 35 189 162 168-6z" /></g></svg>