<svg xmlns="http://www.w3.org/2000/svg" viewBox="0 0 1921 2732"><filter id="b"><feGaussianBlur stdDeviation="12" /></filter><path d="M0 0h1921v2732H0z" fill="#a09a8e" /><g filter="url(#b)" transform="scale(10.671875) translate(0.5 0.5)"><g transform="translate(19.206053 167.354850) rotate(101.461398) scale(33.020824 179.000000)"><ellipse fill="#140500" fill-opacity=".501961" cx="0" cy="0" rx="1" ry="1" /></g><g transform="translate(127.309453 41.167623) rotate(-46.220984) scale(65.680861 179.000000)"><ellipse fill="#fff" fill-opacity=".501961" cx="0" cy="0" rx="1" ry="1" /></g><g transform="translate(31.727457 126.488277) rotate(80.596694) scale(52.984384 20.714622)"><ellipse fill="#381d0d" fill-opacity=".501961" cx="0" cy="0" rx="1" ry="1" /></g><ellipse fill="#fff" fill-opacity=".501961" cx="76" cy="252" rx="129" ry="5" /><ellipse fill="#a2794b" fill-opacity=".501961" cx="78" cy="107" rx="48" ry="48" /><ellipse fill="#2a3c44" fill-opacity=".501961" cx="164" cy="227" rx="30" ry="22" /><path fill="#f2fcf1" fill-opacity=".501961" d="M-16 153 8 53l3 1e2z" /><path fill="#dff4ff" fill-opacity=".501961" d="M159.996743 155.445999 122.713029 153.253053 160.502023-16 195 149.825584z" /></g></svg>