<svg xmlns="http://www.w3.org/2000/svg" viewBox="0 0 1748 2476"><filter id="b"><feGaussianBlur stdDeviation="12" /></filter><path d="M0 0h1748v2476H0z" fill="#e2e2e1" /><g filter="url(#b)" transform="scale(9.671875) translate(0.5 0.5)"><path d="M0 0h1748v2476H0z" fill="#7a796c" /><g transform="translate(56.475331 171.885932) rotate(37.623300) scale(33.242076 43.058422)"><ellipse fill="#6d6d6e" fill-opacity=".501961" cx="0" cy="0" rx="1" ry="1" /></g><path d="M0 0h1748v2476H0z" fill="#000" /><g transform="translate(150.371904 146.610602) rotate(99.370867) scale(180.000000 56.490218)"><ellipse fill="#fff" fill-opacity=".501961" cx="0" cy="0" rx="1" ry="1" /></g><g transform="translate(76.358373 239.704724) rotate(265.565315) scale(27.349182 180.000000)"><ellipse fill="#fff" fill-opacity=".501961" cx="0" cy="0" rx="1" ry="1" /></g><g transform="translate(24 84) rotate(-13) scale(18 23)"><path d="M0 0h1748v2476H0z" fill="#000" /></g><ellipse fill="#fff" fill-opacity=".501961" cx="74" cy="118" rx="163" ry="20" /><path d="M0 0h1748v2476H0z" fill="#000" /></g></svg>