<svg xmlns="http://www.w3.org/2000/svg" viewBox="0 0 2048 1758"><filter id="b"><feGaussianBlur stdDeviation="12" /></filter><path d="M0 0h2048v1758H0z" fill="#9a9783" /><g filter="url(#b)" transform="scale(8.000000) translate(0.5 0.5)"><g transform="translate(140.591971 107.179151) rotate(155.622233) scale(76.961701 89.100422)"><ellipse fill="#000" fill-opacity=".501961" cx="0" cy="0" rx="1" ry="1" /></g><ellipse fill="#fff" fill-opacity=".501961" cx="239" cy="129" rx="25" ry="218" /><g transform="translate(27.163470 65.131986) rotate(8.825355) scale(38.543895 207.168703)"><ellipse fill="#fff" fill-opacity=".501961" cx="0" cy="0" rx="1" ry="1" /></g><ellipse fill="#fff" fill-opacity=".501961" cx="184" cy="209" rx="255" ry="17" /><g transform="translate(120.510151 6.876178) rotate(82.117226) scale(20.273577 187.987591)"><ellipse fill="#fff" fill-opacity=".501961" cx="0" cy="0" rx="1" ry="1" /></g><ellipse fill="#1e1100" fill-opacity=".501961" cx="174" cy="55" rx="41" ry="41" /><g transform="translate(166.611708 134.933231) rotate(239.253043) scale(64.847021 41.271397)"><ellipse fill="#141200" fill-opacity=".501961" cx="0" cy="0" rx="1" ry="1" /></g><path fill="#272200" fill-opacity=".501961" d="M102.25677 192.680655 80.982341 164.191041 34.859843 183.616009 54.017034 196.225641z" /></g></svg>