<svg xmlns="http://www.w3.org/2000/svg" viewBox="0 0 2048 2732"><filter id="b"><feGaussianBlur stdDeviation="12" /></filter><path d="M0 0h2048v2732H0z" fill="#594841" /><g filter="url(#b)" transform="scale(10.671875) translate(0.5 0.5)"><ellipse fill="#fff" fill-opacity=".501961" cx="82" cy="65" rx="191" ry="10" /><g transform="translate(1.168005 153.214892) rotate(32.612102) scale(71.162981 36.577650)"><ellipse fill="#fff5e1" fill-opacity=".501961" cx="0" cy="0" rx="1" ry="1" /></g><ellipse fill="#000" fill-opacity=".501961" cx="83" cy="235" rx="191" ry="37" /><g transform="translate(94.192364 25.780768) rotate(269.585771) scale(30.422515 126.174162)"><ellipse fill="#000" fill-opacity=".501961" cx="0" cy="0" rx="1" ry="1" /></g><path fill="#ffdac2" fill-opacity=".501961" d="M207 199 53 198l154-92z" /><path fill="#fff" fill-opacity=".501961" d="M-16 57l98-1-95 50z" /><path d="M0 0h2048v2732H0z" fill="#ffddb4" /><g transform="translate(88.326584 21.166688) rotate(183.530759) scale(183.898784 32.623990)"><ellipse fill="#000" fill-opacity=".501961" cx="0" cy="0" rx="1" ry="1" /></g></g></svg>