<svg xmlns="http://www.w3.org/2000/svg" viewBox="0 0 2048 2732"><filter id="b"><feGaussianBlur stdDeviation="12" /></filter><path d="M0 0h2048v2732H0z" fill="#735f5b" /><g filter="url(#b)" transform="scale(10.671875) translate(0.5 0.5)"><g transform="translate(87.850344 54.775704) rotate(-63.430004) scale(26.002784 79.677120)"><ellipse fill="#000" fill-opacity=".501961" cx="0" cy="0" rx="1" ry="1" /></g><ellipse fill="#fff" fill-opacity=".501961" cx="105" cy="4" rx="191" ry="8" /><g transform="translate(43.173772 120.913073) rotate(127.079176) scale(43.007757 32.047811)"><ellipse fill="#00000d" fill-opacity=".501961" cx="0" cy="0" rx="1" ry="1" /></g><g transform="translate(23.275814 201.729439) rotate(121.128230) scale(25.044926 50.207357)"><ellipse fill="#feca9f" fill-opacity=".501961" cx="0" cy="0" rx="1" ry="1" /></g><ellipse fill="#fff" fill-opacity=".501961" cx="120" cy="255" rx="191" ry="9" /><ellipse fill="#fff" fill-opacity=".501961" cx="191" cy="184" rx="8" ry="223" /><g transform="translate(145.225978 201.952431) rotate(363.807717) scale(16.864207 48.570487)"><ellipse fill="#e4c3a9" fill-opacity=".501961" cx="0" cy="0" rx="1" ry="1" /></g><ellipse fill="#fff" fill-opacity=".501961" cx="0" cy="66" rx="8" ry="214" /></g></svg>