<svg xmlns="http://www.w3.org/2000/svg" viewBox="0 0 2047 2716"><filter id="b"><feGaussianBlur stdDeviation="12" /></filter><path d="M0 0h2047v2716H0z" fill="#c7c7c7" /><g filter="url(#b)" transform="scale(10.609375) translate(0.5 0.5)"><g transform="translate(85.168222 119.767110) rotate(122.984942) scale(99.576043 65.143685)"><ellipse fill="#7d7d7d" fill-opacity=".501961" cx="0" cy="0" rx="1" ry="1" /></g><ellipse fill="#fff" fill-opacity=".501961" cx="135" cy="246" rx="192" ry="33" /><g transform="translate(85.967899 20.463265) rotate(-88.836550) scale(24.166453 192.000000)"><ellipse fill="#fff" fill-opacity=".501961" cx="0" cy="0" rx="1" ry="1" /></g><path fill="#fff" fill-opacity=".501961" d="M208 257l-73-3 55-108z" /><path fill="#858585" fill-opacity=".501961" d="M40 54l77-38 64 55z" /><ellipse fill="#fff" fill-opacity=".501961" cx="38" cy="71" rx="9" ry="80" /><g transform="translate(0 106) rotate(356) scale(24 48)"><path d="M0 0h2047v2716H0z" fill="#414141" /></g><path fill="#5a5a5a" fill-opacity=".501961" d="M89 151l83-2-71 34z" /></g></svg>