<svg xmlns="http://www.w3.org/2000/svg" viewBox="0 0 2911 3783"><filter id="b"><feGaussianBlur stdDeviation="12" /></filter><path d="M0 0h2911v3783H0z" fill="#6c665a" /><g filter="url(#b)" transform="scale(14.777344) translate(0.5 0.5)"><ellipse fill="#000" fill-opacity=".501961" cx="106" cy="235" rx="196" ry="32" /><g transform="translate(151.232752 139.559232) rotate(43.593954) scale(32.178285 48.437737)"><ellipse fill="#ffd6bf" fill-opacity=".501961" cx="0" cy="0" rx="1" ry="1" /></g><path fill="#76bdff" fill-opacity=".501961" d="M113 130 164 10 84 13z" /><g transform="translate(40.664493 117.219967) rotate(316.650968) scale(67.794594 25.978122)"><ellipse fill="#d9b458" fill-opacity=".501961" cx="0" cy="0" rx="1" ry="1" /></g><g transform="translate(95.619168 186.131474) rotate(109.305588) scale(30.333764 34.941990)"><ellipse fill="#d99260" fill-opacity=".501961" cx="0" cy="0" rx="1" ry="1" /></g><g transform="translate(171.245005 53.781517) rotate(45.070362) scale(37.253812 53.283185)"><ellipse fill="#1f5a9b" fill-opacity=".501961" cx="0" cy="0" rx="1" ry="1" /></g><g transform="translate(163.215956 232.624225) rotate(69.875208) scale(35.033976 58.023343)"><ellipse fill="#000008" fill-opacity=".501961" cx="0" cy="0" rx="1" ry="1" /></g><ellipse fill="#050000" fill-opacity=".501961" cx="42" cy="236" rx="39" ry="39" /></g></svg>