<svg xmlns="http://www.w3.org/2000/svg" viewBox="0 0 1760 2485"><filter id="b"><feGaussianBlur stdDeviation="12" /></filter><path d="M0 0h1760v2485H0z" fill="#c5b8b0" /><g filter="url(#b)" transform="scale(9.707031) translate(0.5 0.5)"><ellipse fill="#350000" fill-opacity=".501961" cx="90" cy="65" rx="78" ry="49" /><ellipse fill="#fff" fill-opacity=".501961" cx="142" cy="186" rx="66" ry="74" /><g transform="translate(55.713243 211.451088) rotate(120.822597) scale(24.750784 42.846931)"><ellipse fill="#241b09" fill-opacity=".501961" cx="0" cy="0" rx="1" ry="1" /></g><g transform="translate(49.943518 44.335574) rotate(361.885431) scale(30.170787 26.375158)"><ellipse fill="#190000" fill-opacity=".501961" cx="0" cy="0" rx="1" ry="1" /></g><g transform="translate(0.000000 146.734525) rotate(360.985416) scale(20.187063 179.954717)"><ellipse fill="#fff" fill-opacity=".501961" cx="0" cy="0" rx="1" ry="1" /></g><g transform="translate(123.341272 160.361755) rotate(287.763512) scale(35.891899 108.090126)"><ellipse fill="#fff" fill-opacity=".501961" cx="0" cy="0" rx="1" ry="1" /></g><g transform="translate(93.143392 0.000000) rotate(269.561351) scale(20.587686 127.304156)"><ellipse fill="#fff" fill-opacity=".501961" cx="0" cy="0" rx="1" ry="1" /></g><ellipse fill="#fff" fill-opacity=".501961" cx="180" cy="144" rx="15" ry="255" /></g></svg>