<svg xmlns="http://www.w3.org/2000/svg" viewBox="0 0 2048 2732"><filter id="b"><feGaussianBlur stdDeviation="12" /></filter><path d="M0 0h2048v2732H0z" fill="#736b5d" /><g filter="url(#b)" transform="scale(10.671875) translate(0.5 0.5)"><ellipse fill="#000" fill-opacity=".501961" cx="0" cy="127" rx="15" ry="255" /><ellipse fill="#000" fill-opacity=".501961" cx="185" cy="117" rx="9" ry="255" /><g transform="translate(162.834477 68.936305) rotate(266.074288) scale(117.406003 13.745075)"><ellipse fill="#73b9ff" fill-opacity=".501961" cx="0" cy="0" rx="1" ry="1" /></g><g transform="translate(87.161330 146.993129) rotate(137.169389) scale(65.626522 44.474493)"><ellipse fill="#d7a960" fill-opacity=".501961" cx="0" cy="0" rx="1" ry="1" /></g><g transform="translate(132.590848 248.296784) rotate(135.561685) scale(59.566803 25.941206)"><ellipse fill="#ffb5a8" fill-opacity=".501961" cx="0" cy="0" rx="1" ry="1" /></g><ellipse fill="#a4a790" fill-opacity=".501961" cx="76" cy="27" rx="62" ry="23" /><g transform="translate(87.500669 64.815377) rotate(294.589723) scale(15.316819 34.381292)"><ellipse fill="#1a0d1c" fill-opacity=".501961" cx="0" cy="0" rx="1" ry="1" /></g><ellipse fill="#b8ac57" fill-opacity=".501961" cx="42" cy="235" rx="28" ry="90" /></g></svg>