<svg xmlns="http://www.w3.org/2000/svg" viewBox="0 0 2048 2732"><filter id="b"><feGaussianBlur stdDeviation="12" /></filter><path d="M0 0h2048v2732H0z" fill="#8d796b" /><g filter="url(#b)" transform="scale(10.671875) translate(0.5 0.5)"><ellipse fill="#cbd5bd" fill-opacity=".501961" cx="36" cy="153" rx="31" ry="255" /><g transform="translate(187.423142 83.715460) rotate(88.477286) scale(190.804790 9.111134)"><ellipse fill="#000" fill-opacity=".501961" cx="0" cy="0" rx="1" ry="1" /></g><g transform="translate(30.312884 235.734410) rotate(-10.226864) scale(17.194009 53.406626)"><ellipse fill="#1bb4d3" fill-opacity=".501961" cx="0" cy="0" rx="1" ry="1" /></g><ellipse fill="#000" fill-opacity=".501961" cx="2" cy="89" rx="4" ry="253" /><g transform="translate(70.955277 51.538127) rotate(75.298620) scale(112.772384 53.293975)"><ellipse fill="#cb8b6f" fill-opacity=".501961" cx="0" cy="0" rx="1" ry="1" /></g><ellipse fill="#62514a" fill-opacity=".501961" cx="159" cy="171" rx="27" ry="241" /><g transform="translate(103.759121 248.585146) rotate(25.184648) scale(35.659252 14.969393)"><ellipse fill="#221f1a" fill-opacity=".501961" cx="0" cy="0" rx="1" ry="1" /></g><g transform="translate(84.325319 161.521884) rotate(94.659710) scale(19.647505 28.322594)"><ellipse fill="#c12b17" fill-opacity=".501961" cx="0" cy="0" rx="1" ry="1" /></g></g></svg>