<svg xmlns="http://www.w3.org/2000/svg" viewBox="0 0 2048 2732"><filter id="b"><feGaussianBlur stdDeviation="12" /></filter><path d="M0 0h2048v2732H0z" fill="#524e48" /><g filter="url(#b)" transform="scale(10.671875) translate(0.5 0.5)"><g transform="translate(77.611391 159.194117) rotate(110.643194) scale(13.153547 47.913482)"><ellipse fill="#ffefe3" fill-opacity=".501961" cx="0" cy="0" rx="1" ry="1" /></g><g transform="translate(88.219747 57.429928) rotate(257.372735) scale(46.327610 75.374490)"><ellipse fill="#b29f72" fill-opacity=".501961" cx="0" cy="0" rx="1" ry="1" /></g><path fill="#000" fill-opacity=".501961" d="M140 160 191-16V271z" /><ellipse fill="#000" fill-opacity=".501961" cx="0" cy="117" rx="16" ry="255" /><path fill="#e0ddff" fill-opacity=".501961" d="M94.875836 158.403744 76.845805 237.467978 54.770957 225.573062 75.754545 177.951488z" /><path fill="#f5d1ca" fill-opacity=".501961" d="M69 154l78-17-22-16z" /><path d="M0 0h2048v2732H0z" fill="#8b95b2" /><g transform="translate(91.895002 19.148750) rotate(-26.139395) scale(16.051114 44.578993)"><ellipse fill="#9cc4a3" fill-opacity=".501961" cx="0" cy="0" rx="1" ry="1" /></g></g></svg>