<svg xmlns="http://www.w3.org/2000/svg" viewBox="0 0 2048 2732"><filter id="b"><feGaussianBlur stdDeviation="12" /></filter><path d="M0 0h2048v2732H0z" fill="#7c7056" /><g filter="url(#b)" transform="scale(10.671875) translate(0.5 0.5)"><ellipse fill="#000" fill-opacity=".501961" cx="32" cy="230" rx="56" ry="56" /><ellipse fill="#000" fill-opacity=".501961" cx="172" cy="228" rx="49" ry="49" /><g transform="translate(136.495820 114.734265) rotate(56.755137) scale(32.413524 111.997644)"><ellipse fill="#fec595" fill-opacity=".501961" cx="0" cy="0" rx="1" ry="1" /></g><g transform="translate(28.505845 29.672284) rotate(200.329917) scale(66.061064 33.090187)"><ellipse fill="#e2d365" fill-opacity=".501961" cx="0" cy="0" rx="1" ry="1" /></g><g transform="translate(138.656515 28.582132) rotate(178.975499) scale(17.158656 32.007206)"><ellipse fill="#96e7ff" fill-opacity=".501961" cx="0" cy="0" rx="1" ry="1" /></g><path fill="#ffe2aa" fill-opacity=".501961" d="M107.437267 203.762075 83.06331 174.666776 134.22668 163.755367 150.87973 171.970414z" /><g transform="translate(175.238062 67.370119) rotate(122.354256) scale(54.912734 24.822812)"><ellipse fill="#dcc4b7" fill-opacity=".501961" cx="0" cy="0" rx="1" ry="1" /></g><ellipse fill="#000119" fill-opacity=".501961" cx="164" cy="236" rx="41" ry="52" /></g></svg>