<svg xmlns="http://www.w3.org/2000/svg" viewBox="0 0 2048 2732"><filter id="b"><feGaussianBlur stdDeviation="12" /></filter><path d="M0 0h2048v2732H0z" fill="#7c6d5b" /><g filter="url(#b)" transform="scale(10.671875) translate(0.5 0.5)"><g transform="translate(172.293808 166.098225) rotate(75.678168) scale(34.270458 69.570420)"><ellipse fill="#000021" fill-opacity=".501961" cx="0" cy="0" rx="1" ry="1" /></g><g transform="translate(113.331162 241.089065) rotate(105.347890) scale(24.942782 77.036602)"><ellipse fill="#fdfbe8" fill-opacity=".501961" cx="0" cy="0" rx="1" ry="1" /></g><g transform="translate(41.343271 42.820426) rotate(190.324186) scale(30.091293 117.792371)"><ellipse fill="#f78830" fill-opacity=".501961" cx="0" cy="0" rx="1" ry="1" /></g><g transform="translate(11.741520 189.402368) rotate(248.290774) scale(74.847016 17.923362)"><ellipse fill="#001627" fill-opacity=".501961" cx="0" cy="0" rx="1" ry="1" /></g><g transform="translate(161.205510 33.382451) rotate(284.644885) scale(100.014523 18.320864)"><ellipse fill="#c9c996" fill-opacity=".501961" cx="0" cy="0" rx="1" ry="1" /></g><ellipse fill="#000" fill-opacity=".501961" cx="189" cy="125" rx="4" ry="197" /><g transform="translate(0 91) rotate(92) scale(191 13)"><path d="M0 0h2048v2732H0z" fill="#000" /></g><g transform="translate(92.089389 183.207669) rotate(81.214636) scale(20.177752 97.816423)"><ellipse fill="#0f2746" fill-opacity=".501961" cx="0" cy="0" rx="1" ry="1" /></g></g></svg>