<svg xmlns="http://www.w3.org/2000/svg" viewBox="0 0 2048 2732"><filter id="b"><feGaussianBlur stdDeviation="12" /></filter><path d="M0 0h2048v2732H0z" fill="#666462" /><g filter="url(#b)" transform="scale(10.671875) translate(0.5 0.5)"><g transform="translate(20.106619 65.649657) rotate(-78.229468) scale(25.506448 81.088873)"><ellipse fill="#fff9b2" fill-opacity=".501961" cx="0" cy="0" rx="1" ry="1" /></g><ellipse fill="#1f1f2f" fill-opacity=".501961" cx="171" cy="58" rx="83" ry="83" /><ellipse fill="#92bee0" fill-opacity=".501961" cx="191" cy="185" rx="62" ry="49" /><g transform="translate(67.971126 29.411755) rotate(178.886359) scale(51.253391 23.431838)"><ellipse fill="#1e0e04" fill-opacity=".501961" cx="0" cy="0" rx="1" ry="1" /></g><g transform="translate(37.613904 186.634568) rotate(165.342628) scale(18.200389 65.680435)"><ellipse fill="#b8bda0" fill-opacity=".501961" cx="0" cy="0" rx="1" ry="1" /></g><g transform="translate(169.860373 220.354600) rotate(77.276846) scale(38.352039 11.222137)"><ellipse fill="#00152d" fill-opacity=".501961" cx="0" cy="0" rx="1" ry="1" /></g><ellipse fill="#ffe8a5" fill-opacity=".501961" cx="37" cy="0" rx="33" ry="11" /><path fill="#131923" fill-opacity=".501961" d="M50.629926 9.946649l12.02664 111.146625L1.704103 112.967165 61.223376 81.992516z" /></g></svg>