<svg xmlns="http://www.w3.org/2000/svg" viewBox="0 0 1671 2731"><filter id="b"><feGaussianBlur stdDeviation="12" /></filter><path d="M0 0h1671v2731H0z" fill="#a7a7a7" /><g filter="url(#b)" transform="scale(10.667969) translate(0.5 0.5)"><ellipse fill="#383838" fill-opacity=".501961" cx="72" cy="103" rx="71" ry="71" /><g transform="translate(127.417090 218.984027) rotate(14.476100) scale(48.480097 125.112304)"><ellipse fill="#fff" fill-opacity=".501961" cx="0" cy="0" rx="1" ry="1" /></g><g transform="translate(20.070151 17.975824) rotate(238.483256) scale(99.059464 25.417924)"><ellipse fill="#fff" fill-opacity=".501961" cx="0" cy="0" rx="1" ry="1" /></g><g transform="translate(118.835450 59.401105) rotate(105.516713) scale(23.927329 33.784128)"><ellipse fill="#040404" fill-opacity=".501961" cx="0" cy="0" rx="1" ry="1" /></g><g transform="translate(38.233979 230.881288) rotate(156.535309) scale(8.931466 50.690954)"><ellipse fill="#000" fill-opacity=".501961" cx="0" cy="0" rx="1" ry="1" /></g><ellipse fill="#090909" fill-opacity=".501961" cx="13" cy="153" rx="121" ry="16" /><g transform="translate(80.580748 196.384325) rotate(111.259547) scale(24.460777 56.415270)"><ellipse fill="#fff" fill-opacity=".501961" cx="0" cy="0" rx="1" ry="1" /></g><g transform="translate(14.433813 118.656857) rotate(139.072897) scale(77.526273 7.663628)"><ellipse fill="#fff" fill-opacity=".501961" cx="0" cy="0" rx="1" ry="1" /></g></g></svg>