<svg xmlns="http://www.w3.org/2000/svg" viewBox="0 0 2048 2732"><filter id="b"><feGaussianBlur stdDeviation="12" /></filter><path d="M0 0h2048v2732H0z" fill="#736b5d" /><g filter="url(#b)" transform="scale(10.671875) translate(0.5 0.5)"><ellipse fill="#000" fill-opacity=".501961" cx="6" cy="121" rx="9" ry="255" /><ellipse fill="#000" fill-opacity=".501961" cx="191" cy="128" rx="15" ry="255" /><g transform="translate(161.708075 58.128566) rotate(86.453775) scale(118.085224 13.912870)"><ellipse fill="#76bdff" fill-opacity=".501961" cx="0" cy="0" rx="1" ry="1" /></g><g transform="translate(86.956643 143.751067) rotate(315.157792) scale(64.739671 46.016684)"><ellipse fill="#d7a75f" fill-opacity=".501961" cx="0" cy="0" rx="1" ry="1" /></g><g transform="translate(137 236) rotate(347) scale(78 42)"><path d="M0 0h2048v2732H0z" fill="#ffb5a6" /></g><g transform="translate(84.906113 67.323637) rotate(284.880153) scale(15.053718 36.579395)"><ellipse fill="#1c0e1b" fill-opacity=".501961" cx="0" cy="0" rx="1" ry="1" /></g><path d="M0 0h2048v2732H0z" fill="#c7b756" /><ellipse fill="#a5a78d" fill-opacity=".501961" cx="72" cy="26" rx="58" ry="25" /></g></svg>