<svg xmlns="http://www.w3.org/2000/svg" viewBox="0 0 1748 2476"><filter id="b"><feGaussianBlur stdDeviation="12" /></filter><path d="M0 0h1748v2476H0z" fill="#e2e2e1" /><g filter="url(#b)" transform="scale(9.671875) translate(0.5 0.5)"><g transform="translate(25 85) rotate(0) scale(27 28)"><path d="M0 0h1748v2476H0z" fill="#000" /></g><g transform="translate(58.357886 172.842204) rotate(36.177444) scale(33.149181 45.360011)"><ellipse fill="#707071" fill-opacity=".501961" cx="0" cy="0" rx="1" ry="1" /></g><g transform="translate(64.782546 55.761661) rotate(25.716086) scale(55.798201 41.878079)"><ellipse fill="#8d8c7e" fill-opacity=".501961" cx="0" cy="0" rx="1" ry="1" /></g><g transform="translate(154.862501 148.254125) rotate(281.179771) scale(180.000000 60.909536)"><ellipse fill="#fff" fill-opacity=".501961" cx="0" cy="0" rx="1" ry="1" /></g><path d="M0 0h1748v2476H0z" fill="#000" /><g transform="translate(78.051047 242.429290) rotate(-5.811100) scale(178.192527 30.797552)"><ellipse fill="#fff" fill-opacity=".501961" cx="0" cy="0" rx="1" ry="1" /></g><path fill="#070807" fill-opacity=".501961" d="M45.226977 46.480362 63.719034 43.830881 17.236678 38.702033l-7.099567 9.234251z" /><ellipse fill="#fff" fill-opacity=".501961" cx="52" cy="120" rx="180" ry="20" /></g></svg>