<svg xmlns="http://www.w3.org/2000/svg" viewBox="0 0 2048 2732"><filter id="b"><feGaussianBlur stdDeviation="12" /></filter><path d="M0 0h2048v2732H0z" fill="#857369" /><g filter="url(#b)" transform="scale(10.671875) translate(0.5 0.5)"><g transform="translate(105.240611 123.844777) rotate(126.804892) scale(30.869206 62.951007)"><ellipse fill="#272232" fill-opacity=".501961" cx="0" cy="0" rx="1" ry="1" /></g><ellipse fill="#071536" fill-opacity=".501961" cx="147" cy="65" rx="30" ry="40" /><g transform="translate(24.831658 215.121287) rotate(147.357556) scale(65.571524 33.290310)"><ellipse fill="#eabf98" fill-opacity=".501961" cx="0" cy="0" rx="1" ry="1" /></g><ellipse fill="#ffdcb0" fill-opacity=".501961" cx="99" cy="52" rx="18" ry="40" /><g transform="translate(180.661635 204.219926) rotate(69.359595) scale(41.659209 20.601566)"><ellipse fill="#e5c5b3" fill-opacity=".501961" cx="0" cy="0" rx="1" ry="1" /></g><path fill="#000006" fill-opacity=".501961" d="M55 1l7 61L93 37z" /><g transform="translate(74.891072 69.337242) rotate(166.793159) scale(31.543397 7.508205)"><ellipse fill="#f6ffef" fill-opacity=".501961" cx="0" cy="0" rx="1" ry="1" /></g><g transform="translate(188.523269 97.238810) rotate(84.031536) scale(80.496350 9.225001)"><ellipse fill="#c1d2c6" fill-opacity=".501961" cx="0" cy="0" rx="1" ry="1" /></g></g></svg>