<svg xmlns="http://www.w3.org/2000/svg" viewBox="0 0 2047 2716"><filter id="b"><feGaussianBlur stdDeviation="12" /></filter><path d="M0 0h2047v2716H0z" fill="#c7c7c7" /><g filter="url(#b)" transform="scale(10.609375) translate(0.5 0.5)"><g transform="translate(85.004147 121.926741) rotate(125.053574) scale(95.857045 67.061277)"><ellipse fill="#7d7d7d" fill-opacity=".501961" cx="0" cy="0" rx="1" ry="1" /></g><ellipse fill="#fff" fill-opacity=".501961" cx="158" cy="241" rx="192" ry="29" /><g transform="translate(102.999539 17.525126) rotate(179.659816) scale(192.000000 25.739273)"><ellipse fill="#fff" fill-opacity=".501961" cx="0" cy="0" rx="1" ry="1" /></g><g transform="translate(192.000000 211.106822) rotate(283.552757) scale(61.237453 30.127019)"><ellipse fill="#fff" fill-opacity=".501961" cx="0" cy="0" rx="1" ry="1" /></g><g transform="translate(150.036522 64.350756) rotate(-9.756996) scale(30.242592 8.848871)"><ellipse fill="#4b4b4b" fill-opacity=".501961" cx="0" cy="0" rx="1" ry="1" /></g><ellipse fill="#4a4a4a" fill-opacity=".501961" cx="5" cy="105" rx="8" ry="29" /><g transform="translate(39.280938 86.423670) rotate(-0.186609) scale(9.309430 65.564189)"><ellipse fill="#fff" fill-opacity=".501961" cx="0" cy="0" rx="1" ry="1" /></g><ellipse fill="#fff" fill-opacity=".501961" cx="0" cy="204" rx="21" ry="73" /></g></svg>