<svg xmlns="http://www.w3.org/2000/svg" viewBox="0 0 2911 3783"><filter id="b"><feGaussianBlur stdDeviation="12" /></filter><path d="M0 0h2911v3783H0z" fill="#6c665a" /><g filter="url(#b)" transform="scale(14.777344) translate(0.5 0.5)"><g transform="translate(112.243478 236.519532) rotate(179.951369) scale(196.000000 33.002643)"><ellipse fill="#000" fill-opacity=".501961" cx="0" cy="0" rx="1" ry="1" /></g><g transform="translate(147.059441 139.874608) rotate(36.701329) scale(29.783889 48.363304)"><ellipse fill="#ffdcc3" fill-opacity=".501961" cx="0" cy="0" rx="1" ry="1" /></g><ellipse fill="#5c9ee2" fill-opacity=".501961" cx="131" cy="53" rx="52" ry="45" /><ellipse fill="#b3944d" fill-opacity=".501961" cx="48" cy="132" rx="78" ry="66" /><ellipse fill="#b3e0ff" fill-opacity=".501961" cx="114" cy="76" rx="11" ry="55" /><ellipse fill="#000005" fill-opacity=".501961" cx="154" cy="237" rx="46" ry="38" /><g transform="translate(51.450469 233.122251) rotate(247.893491) scale(48.387764 27.226454)"><ellipse fill="#060000" fill-opacity=".501961" cx="0" cy="0" rx="1" ry="1" /></g><g transform="translate(98.149576 187.258063) rotate(429.485741) scale(31.918756 27.498609)"><ellipse fill="#cc8b65" fill-opacity=".501961" cx="0" cy="0" rx="1" ry="1" /></g></g></svg>