<svg xmlns="http://www.w3.org/2000/svg" viewBox="0 0 1760 2478"><filter id="b"><feGaussianBlur stdDeviation="12" /></filter><path d="M0 0h1760v2478H0z" fill="#e6e6e3" /><g filter="url(#b)" transform="scale(9.679688) translate(0.5 0.5)"><g transform="translate(54.831074 54.608438) rotate(33.302955) scale(28.081897 33.106403)"><ellipse fill="#000" fill-opacity=".501961" cx="0" cy="0" rx="1" ry="1" /></g><g transform="translate(50.044659 142.572828) rotate(397.991024) scale(26.278692 34.221165)"><ellipse fill="#020504" fill-opacity=".501961" cx="0" cy="0" rx="1" ry="1" /></g><path fill="#130d00" fill-opacity=".501961" d="M27.084707 31.476182 72.791827 22.776228 85.147456 80.413833 56.709627 78.400277z" /><g transform="translate(138.750494 132.976726) rotate(87.317085) scale(181.000000 59.720878)"><ellipse fill="#fff" fill-opacity=".501961" cx="0" cy="0" rx="1" ry="1" /></g><path fill="#141616" fill-opacity=".501961" d="M48.995392 201.548272 19.512776 159.276511 35.321983 205.430345 47.636388 208.81035z" /><path d="M0 0h1760v2478H0z" fill="#101111" /><path d="M0 0h1760v2478H0z" fill="#fff" /><path fill="#fff" fill-opacity=".501961" d="M55.834072 145.210771-7.045004 153.550919 4.121227 198.69084 44.409218 134.153074z" /></g></svg>