<svg xmlns="http://www.w3.org/2000/svg" viewBox="0 0 1760 2485"><filter id="b"><feGaussianBlur stdDeviation="12" /></filter><path d="M0 0h1760v2485H0z" fill="#c5b8b0" /><g filter="url(#b)" transform="scale(9.707031) translate(0.5 0.5)"><g transform="translate(91.158219 65.056151) rotate(367.266757) scale(75.786003 48.474918)"><ellipse fill="#300" fill-opacity=".501961" cx="0" cy="0" rx="1" ry="1" /></g><ellipse fill="#fff" fill-opacity=".501961" cx="156" cy="188" rx="76" ry="76" /><g transform="translate(48.319497 205.665175) rotate(321.455737) scale(26.125970 38.478216)"><ellipse fill="#2f1e05" fill-opacity=".501961" cx="0" cy="0" rx="1" ry="1" /></g><g transform="translate(111.061098 140.491938) rotate(273.275648) scale(25.085400 153.394967)"><ellipse fill="#fff" fill-opacity=".501961" cx="0" cy="0" rx="1" ry="1" /></g><g transform="translate(87.464215 2.950292) rotate(89.965514) scale(17.373045 107.708882)"><ellipse fill="#fff" fill-opacity=".501961" cx="0" cy="0" rx="1" ry="1" /></g><ellipse fill="#1e0100" fill-opacity=".501961" cx="55" cy="46" rx="38" ry="27" /><path d="M0 0h1760v2485H0z" fill="#3b0002" /><ellipse fill="#fff" fill-opacity=".501961" cx="0" cy="179" rx="17" ry="254" /></g></svg>