<svg xmlns="http://www.w3.org/2000/svg" viewBox="0 0 2048 2732"><filter id="b"><feGaussianBlur stdDeviation="12" /></filter><path d="M0 0h2048v2732H0z" fill="#735f5b" /><g filter="url(#b)" transform="scale(10.671875) translate(0.5 0.5)"><g transform="translate(79.635989 51.228865) rotate(118.986601) scale(24.660810 67.859799)"><ellipse fill="#000" fill-opacity=".501961" cx="0" cy="0" rx="1" ry="1" /></g><g transform="translate(43.941087 125.823292) rotate(135.453947) scale(42.281314 29.334849)"><ellipse fill="#00000a" fill-opacity=".501961" cx="0" cy="0" rx="1" ry="1" /></g><ellipse fill="#fff" fill-opacity=".501961" cx="117" cy="3" rx="191" ry="9" /><g transform="translate(29.148882 201.289309) rotate(37.713748) scale(41.822855 24.180505)"><ellipse fill="#ffcca1" fill-opacity=".501961" cx="0" cy="0" rx="1" ry="1" /></g><ellipse fill="#fff" fill-opacity=".501961" cx="191" cy="185" rx="8" ry="229" /><ellipse fill="#fff" fill-opacity=".501961" cx="111" cy="255" rx="187" ry="9" /><g transform="translate(146.165377 201.936589) rotate(272.427321) scale(42.876481 16.909634)"><ellipse fill="#eac7ab" fill-opacity=".501961" cx="0" cy="0" rx="1" ry="1" /></g><ellipse fill="#fff" fill-opacity=".501961" cx="0" cy="116" rx="8" ry="152" /></g></svg>