<svg xmlns="http://www.w3.org/2000/svg" viewBox="0 0 2048 1673"><filter id="b"><feGaussianBlur stdDeviation="12" /></filter><path d="M0 0h2048v1673H0z" fill="#c1c1c1" /><g filter="url(#b)" transform="scale(8.000000) translate(0.5 0.5)"><g transform="translate(180.098283 51.468141) rotate(163.321126) scale(62.167480 13.046194)"><ellipse fill="#000" fill-opacity=".501961" cx="0" cy="0" rx="1" ry="1" /></g><g transform="translate(154.437658 121.998825) rotate(426.405924) scale(30.214257 21.784850)"><ellipse fill="#000" fill-opacity=".501961" cx="0" cy="0" rx="1" ry="1" /></g><path d="M0 0h2048v1673H0z" fill="#000" /><g transform="translate(79.229725 15.509940) rotate(189.390454) scale(86.204783 41.401822)"><ellipse fill="#fff" fill-opacity=".501961" cx="0" cy="0" rx="1" ry="1" /></g><g transform="translate(22.824053 193.656220) rotate(226.382769) scale(34.040873 83.730938)"><ellipse fill="#fff" fill-opacity=".501961" cx="0" cy="0" rx="1" ry="1" /></g><g transform="translate(39.279231 132.413162) rotate(141.316018) scale(34.875707 5.538080)"><ellipse fill="#000" fill-opacity=".501961" cx="0" cy="0" rx="1" ry="1" /></g><path fill="#000" fill-opacity=".501961" d="M94.787358 73.621364 179.08207 48.043781 237.673773 31.154933 93.636134 99.604346z" /><g transform="translate(250.302034 137.770418) rotate(90.995013) scale(158.030840 11.675729)"><ellipse fill="#fff" fill-opacity=".501961" cx="0" cy="0" rx="1" ry="1" /></g></g></svg>